<?xml version="1.0" encoding="UTF-8"?>
<svg version="1.1" viewBox="0 0 1600 1066" width="1280" height="1280" xmlns="http://www.w3.org/2000/svg">
<path transform="translate(448,567)" d="m0 0 9 1 10 5 6 5 6 10 3 10 1 5 1 24 3 6 4 2-5-6v-2l17 4 15 3 2-12 7-37 4-8 5-4 4-1 10 3 7 6 5 8 4 13 4 26 1 12 32-2 37-5 11-1 6-7 11-5 32-9 40-14 15-3 21-3 25-7 21-5h24l24 4 11 3 10 6h10l23-3 22-4 7-1h13l11-6h20l15 3 8 6 5 6v2l17-8 11-2 21 1 87 9 263 28 114 13 57 8 5 1v310l-12-3-48-15-60-18-39-12-113-36-55-18-26-8-36-12-49-16-50-16-35-11-33-11-18-5-14-7-13-11-5-1-9 2-14 7-55 16-34 13-29 12-29 14-22 12-25 12-30 10-54 14-16 3-9 1-20 1-8 2-16 1-10-9-6-7-7-3-10 6-5 1-13-5-7-3-4 1-7 6-2 1h-14l-50-7-20-3-13-5-14-5-8-4-9-2-19-12-22-14-16-12-9-7-4-6-3-5-10-8-11-7-14-12-33-33-8-7-8-9-3-5v-8l4-9 6-4 6-2h24l13 5 17 9 30 20 7 5 4 7 9 5 7 6 6 1 21 9 18 10 13 8 6 5-8-23-11-27-1-7-6-8-3-8v-18l-1-3-1-15-4-13-1-11 3-15 4-6 6-3 2-25 3-10 5-6z" fill="#3B3753"/>
<path transform="translate(539,572)" d="m0 0 9 2 8 6 6 9 4 13 4 26 1 12 32-2 37-5 11-1 6-7 11-5 32-9 40-14 15-3 21-3 25-7 21-5h24l24 4 11 3 1 2-16 1-12 3-12 5-10 5-6 4h-3v2h-3v2l-4 1-1 3-4 1v2l-5 2-2 4-7 5-5 5h-2l-1 3-8 7-3 1-1 3-11 9-4 4h-2v2l-11 7-2 2 16-8 25-10 15-3 14-1 6-2 4 2h12l5-5 6-2 1-3h17l7 3 2 3-3 7-7 6-5 2-4-1-5-4h-4l2 2 1 7 3 5-1 5-7 6-16 8-11 6-11 7-10 8-5 3-5 4-5 5-5 4-27 27h-2l-1 3-10 7h-7l-3-1h-23l-23 3h-8l-9-24-1-7h-2l-7-14-2-6-3-5v-4l19-3 2-1h-10l-7-1h-6l-2-3 1-9 14-1-6-9-4-8-3-14v-17l-16 1 8 11 4 7-1 4-8-6-7-1v2h-8l-2-7 1-5h-2v-2l-6 3-5 11-5 23-17 1h-8l-3-2-3-9-3-4-2-48-3-15-4-7-2-4h-2l-5-5-7-8-5-5z" fill="#B1F6FE"/>
<path transform="translate(536,573)" d="m0 0 4 2 8 7 5 5 2 4h2l6 8 2 6 2 12 2 48 4 6 2 7 2 1h25l2-14 3-12 5-9 3-2h3v2h2l1 11 8 1v-2h7l8 6-1-5-7-11-3-3v-2l2-1h14l1 17 4 16 6 11 2 4-14 1v9l1 2h11l5 1h11l-4 2-13 3h-8l3 8 2 2 3 9 4 8v2h2l7 21 3 7v3l31-4h23l3 1h7l10-7 5-5 7-6 7-8 8-8h2l1-3 8-6 9-9 5-3 11-8 11-7 11-6 14-7 3-1 1-3 2-1-1-7-2-2-1-7-3-3h6l6 5 10-2-1 2h-2l-1 3-9 5 6 13v24l-5 12 19-9 15-9 14-10 1-2 3 1 6 7v10l-1 3-5 2 12-2 7 3v2l6 2 7-1 6-2-5-9v-2h-2l1-3 6-1 5 6 4 2 9-1 13-5 19-10 8-4h6v6l-4 6h-3l-1-2h-7l-19 7-15 7-6 1-3 4-8 4-12 7-11 5h-4v2l-9 1-6 4-10 4-7 4-8 3-32 18-11 7-10 6-6 3-10 6-14 7-29 12-18 6-8 1-3-7 9-4 9-6h2v-2l4-2 5-5 10-8 11-8 7-3 5-3 2-2-11 4h-10l-1 1h-5v2l-10 5-8 1h-6l-1-1v3l-21 6-9 2h-4l5 7-1 2-5-4v-2l-12-6-14-6-5-1-4-8-2-1v-2h-7l-4-8-5-12-6-10-4-11-3-7v-3l-10 2-4-5-1-3v-9l-1-4 7-1v-3l-4-1h-12l-11 3-9 5-3 8 2 9 2 4v5l-20-3 3 13 1 8h4v-2l8-7 3-2 9 33v5l-8 1 6 3 6 2 3 11 3 2 6-1 1 3 17-8 5-2-1 5-13 7-6 4 1 4 10-1 13-7-1-7 3 3 2 9-16 8h-2v2l-10 1-10-5-9-4-8-3-3 1-1-16-6-10-1-3h-3l6 8 3 8v7l-3 9-3 3h-11l-6-5-1-5 7 5h8l4-2-1-14-3-5-4-3-7-1-5 2v15h-1l-1-5v-10l3-5 6-4h6v-2l-9 2-7 4-9 4 1-5h4v-2l7-4-2-12v-9l-5-5-4-9-5-15-4-7v-3h-2l-2-7h-6l-1-3 2-3 7-3 4-6 1-9v-3l-4 2-3 3 2-7 3-2h11l-10-1-2-10-1-11-1-8-1-21-4-22-5-10-4-4h-7z" fill="#586985"/>
<path transform="translate(448,567)" d="m0 0 9 1 10 5 6 5 6 10 3 10 1 5 1 24 3 6 4 2-5-6v-2l17 4 15 3-4 16-1 17 7 3-1 4-4 2-1 7v9l2 2v7l-3 4-11-1v4l3 1 8 16 5 12v3h2l1 2 2 28 1 2v6l6-1-1 3h-5l-1 4-4 2-1 4v9l2 7 8 5 7-1 2 5-3 1h-7l-10-6-4-8v-11l4-8 3-4-1-5v-3l-4 4-2-4-8-24-4-10-1-3h-2l-3-5-8-13-3 1-2 5h-6l2 13-3 1 5 5-1 4 4-1 5 12 3 1 2 7v5l-3 1v-2h-3l3 9v8l1 5-6 4-1 2 10 1-1 4h-17l-9 3-5 2-1 4v10l2 9 16 1v-2l4-4 2-3h2l-1 7-3 1-1 4-4 3h-7l-7-3v-2l-7-1-4 1-2-2 1-4 5-2-1-10-2-1v-6l-6-7-8-5-9-6-3-3-12-7-9-4-16-9-1-5h-3l-2 6h-2l-2 4h-8l-4-3v-2l-4-2-3-5 1-5 6-10-6-2-4-2v-2l-5-2-7-6-3-3-3-2v-2l-4-2-3-3v-2h-2l-7-8-10-9-11-11-6-3-3 1-14-7v-1h24l13 5 17 9 30 20 7 5 4 7 9 5 7 6 6 1 21 9 18 10 13 8 6 5-8-23-11-27-1-7-6-8-3-8v-18l-1-3-1-15-4-13-1-11 3-15 4-6 6-3 2-25 3-10 5-6z" fill="#4A4455"/>
<path transform="translate(977,578)" d="m0 0h20l15 3 8 6 5 6v2l17-8 11-2 21 1 87 9 263 28 114 13 57 8 5 1v2l-24-3-76-10-36-4-67-7-19-1-9-1-6 2-13 1-15 4-9 6-3 6-6 3-9 3-7 4-3 3 27 5-1 3-9-1-57-10h-18l-23 1-3-1-12 2 1-2-6-1-11 4-10 3-3 3-17 2v-2l-11-1 1-3 2-2v-2l-5-1-3 2-2-3-5-2v-3l-4 1-9 3-7 1-12 3-5 5v3l1 4-5 7h-2l-2 5-5 5h-3l2 9h-2l1 3-2 3-3-11-2-9-2-5-2-10-4-11-5-15-5-5-7-11-8-7 2 4v3l3 1 3 6v2l-5-2-4-7-3-1 1 5v10l-2-4-4-16-4-10-5-5v-2l-4-2-4-4v-2l-5-1-1 2h-3l6 11 4 9 2 9 1 4v9l-6-3-1 5-7-6-12-4h-16l-12 4-9 7-5 5-6 9-4 10-1 6v13l3 11 1 5-6 2-3-7-2-8v-18l4-14 7-13h2l2-4 5-5h2v-2l10-6 16-4 14 1 10 4-8-15-1-3h-2v-2l-4-2-4-5 8 1-5-3h-16l-1 3-12 1-3-2 10-3-2-1h-19l-6 1h-11v-1l24-4h13z" fill="#414D65"/>
<path transform="translate(946,587)" d="m0 0h19l5 1-3 2-8 2 1 1h12l1-4h16l5 3 1 2-8-1 7 6v2h2l8 14 1 4-10-3v-2h-16l-11 1-5 1-6 4-7 8h-2v2l-5 5-7 10-5 15-3 2-1 3-5 3-7 2-2 4-7 6h-3l-1 3h-2l-2 4-4 4h-2v2l-12 5h-7l-8 2-1-2-2-15-6-14v-3l9-5 7-8 3-5 1-4-4-3-4-1-17-1-1 4-7 3-4 4h-12l-6-2-4 2-21 2-17 5-13 6-9 4-10 5-2-1 9-6 4-3h2v-2l11-9 6-5 5-5 7-6 3-3 8-7 5-4 4-4h2v-2l4-2 3-3h2v-2h3v-2l11-6 14-7 12-4 6-1h18l7 4h10l23-3 16-1z" fill="#3D3B56"/>
<path transform="translate(858,673)" d="m0 0 2 2 2 5v24l-5 12 19-9 15-9 14-10 1-2 3 1 6 7v10l-1 3-5 2 12-2 7 3v2l6 2 7-1 6-2-5-9v-2h-2l1-3 6-1 5 6 4 2 9-1 13-5 19-10 8-4h6v6l-4 6h-3l-1-2h-7l-19 7-15 7-6 1-3 4-8 4-12 7-11 5h-4v2l-9 1-6 4-10 4-7 4-8 3-32 18-11 7-10 6-6 3-10 6-14 7-29 12-18 6-8 1-3-7 9-4 9-6h2v-2l4-2 5-5 10-8 11-8 7-3 5-3 2-2-11 4h-10l-1 1h-5v2l-10 5-8 1h-6l-1-1-1 3-1-5-4-2-4-3v-2h3v-2l16-10 9-7 3-1 1-3 5-4h2l2-4 16-12 10-7 24-16 12-5 7-2 7-5 2-4z" fill="#4A5066"/>
<path transform="translate(533,577)" d="m0 0h5l7 8 3 7 4 22 1 26 1 3 2 21h10l1 2h-12l-3 2v3l2-2h3l1 8-3 7-4 5-6 2-1 5h6l2 7h2l5 10 5 15 4 9v2l4 2 1 1v17l-4 1-3-5-8-32-2-10-5-9 4 17 6 25 2 12v10l-5 5-5 4h-8l3-3v-1l-18 3-4 2h-2l-2-8-2-30h-2l-6-15-8-16-3-3 1-3 11 1 2-3v-7l-2-2v-9l1-7 5-3v-3l-7-3 1-17 3-14 3-9 8-42 3-6z" fill="#494456"/>
<path transform="translate(281,677)" d="m0 0h24l13 5 17 9 30 20 7 5 4 7 9 5 7 6 6 1 21 9 18 10 13 8 4 3 5 13 5 12 6 8 6 2-1 2-8 2-5 2-1 4v10l2 9 16 1v-2l4-4 2-3h2l-1 7-3 1-1 4-4 3h-7l-7-3v-2l-7-1-4 1-2-2 1-4 5-2-1-10-2-1v-6l-6-7-8-5-9-6-3-3-12-7-9-4-16-9-1-5h-3l-2 6h-2l-2 4h-8l-4-3v-2l-4-2-3-5 1-5 6-10-6-2-4-2v-2l-5-2-7-6-3-3-3-2v-2l-4-2-3-3v-2h-2l-7-8-10-9-11-11-6-3-3 1-14-7z" fill="#4C667E"/>
<path transform="translate(977,578)" d="m0 0h20l15 3 8 6 5 6v2l17-8 11-2 21 1 76 8v2l-14 2-11 1-15 4-12 6-5 5-3 4-5 24-3 6-3 1-5-2-4-5-3-2-2 4v-2h-2l-3-8-4-4-7-11-8-7 2 4v3l3 1 3 6v2l-5-2-4-7-3-1 1 5v10l-2-4-4-16-4-10-5-5v-2l-4-2-4-4v-2l-5-1-1 2h-3l6 11 4 9 2 9 1 4v9l-6-3-1 5-7-6-12-4h-16l-12 4-9 7-5 5-6 9-4 10-1 6v13l3 11 1 5-6 2-3-7-2-8v-18l4-14 7-13h2l2-4 5-5h2v-2l10-6 16-4 14 1 10 4-8-15-1-3h-2v-2l-4-2-4-5 8 1-5-3h-16l-1 3-12 1-3-2 10-3-2-1h-19l-6 1h-11v-1l24-4h13z" fill="#5798AD"/>
<path transform="translate(851,639)" d="m0 0h17l7 3 2 3-3 7-7 6-5 2-4-1-5-4h-4l2 2 1 7 3 5-1 5-7 6-16 8-11 6-11 7-10 8-5 3-5 4-5 5-5 4-27 27h-2l-1 3-10 7h-7l-3-1h-23l-23 3h-8l-9-24v-2l5-1 8-3 21-5 13-4 5-2 13-3 14-1 2 6-3 10 5-1 2-4 11-9 19-13h2v-2l11-8 4-2 2-4 11-9 9-11 8-7 3-3 12-4v-3l-2-2-15-1-2-1v-2h-5l4-2 4 2h12l5-5 6-2z" fill="#7CEFFA"/>
<path transform="translate(1e3 684)" d="m0 0h6v6l-4 6h-3l-1-2h-7l-19 7-15 7-6 1-3 4-8 4-12 7-11 5h-4v2l-9 1-6 4-10 4-7 4-8 3-32 18-11 7-10 6-6 3-10 6-14 7-29 12-18 6-8 1-3-7 9-4 9-6h2v-2l4-2 5-5 10-8 11-8 7-3 5-3 10-4 7-4h3v-2l-24 8h-2l1-3 11-7 11-5 13-4 7-3 18-6 2-2 10-3 9-5 14-5 4-3 13-5 12-5 9 2 1 3 6 2 7-1 6-2-5-9v-2h-2l1-3 6-1 5 6 4 2 9-1 13-5 19-10z" fill="#63CADC"/>
<path transform="translate(448,567)" d="m0 0 9 1 10 5 6 5 6 10 3 10 1 5 1 24 3 6 4 2-5-6v-2l17 4 15 3-4 16-1 17 7 3-1 4-4 2-1 7v9l2 2v7l-3 4-11-1v4l3 1 8 16 5 12v3h2l1 2 2 28 1 2v6l6-1-1 3h-5l-1 4-4 2-1 4v9l2 7 8 5 7-1 2 5-3 1h-7l-10-6-4-8v-11l4-8 3-4-1-5v-3l-4 4-2-4-10-30-2-9-2-6h-2l-2-5-3-1-3-4-3-7-1-2h-7l2-3 5-3 3-4v-11l-4-10-1-4-5-1-6-30-1-24-3-12-7-19-3-6-4-4-3-4v-4z" fill="#5693AA"/>
<path transform="translate(435,674)" d="m0 0h34v2l-3 3-2 5v9l3 7 1 3h11l5-5h2l-1-17-2-5h2l4 10v11l-6 7-3 2h5l4 6 2 5 6 7v2h2l4 8v5l-3-3v-2h-2l-3-5-8-13-3 1-2 5h-6l2 13-3 1 5 5-1 4 4-1 5 12 3 1 2 7v5l-3 1v-2h-3l3 9v8l1 5-6 4-1 2 10 1-1 4-18-1-6-2-6-8-3-6-6-18h2l-10-27-9-22-1-7-6-8-3-8v-12l1-7z" fill="#494456"/>
<path transform="translate(1150,595)" d="m0 0h11l112 12 37 4v1h-14l-32-3-4-1h-10l-8 1-13 1-10 3-17 5-6 3-6 2-35 5-41 4-9 3-8 7h-2l-2 12-6 10h-2l-1 4-6 1-10-20-4-4 1-3 2-3 4 3v2l3 1 1 2 7 1 3-10 4-20 6-7h2l1-3 14-7 20-4h7z" fill="#4D6880"/>
<path transform="translate(979,613)" d="m0 0h10l6 1v1h-14l-16 4-8 5h-2v2l-8 7-1 2h-2l-2 6-5 10-3 11v18l4 14 6-1-4-11-1-5v-13l2-9 7-14 5-6 12-9 12-4h16l12 4 4 3v2l-4-1-5-2-13-2h-10l-10 3-6 5-5 1 2 2 4-3 5 1 1 3 5 2 4 27 2 12-1 10-4 4-10 3-5 4h14l-2 2-9 3h-6l-6-4-3-4-6 1-1 2h2l5 9v3l-9 3-6-1-4-2-1-2-9-2-5 2h-5l3-3h3v-13l-6-7-2-1-1 3-10 7-14 9-21 11h-3l4-12v-21h2l2 15h3l11-1 11-4h2v-2l7-6 4-5 5-3 6-5 4-4 9-3 1-4 3-1 2-9 4-9 8-11 3-1v-2l7-6 5-5 5-3h9z" fill="#3A3652"/>
<path transform="translate(623,689)" d="m0 0h12l4 2 1 3-1 1h-7l2 6v7l4 8-1 2 2 1 8 17 5 14v7l2 5v6l3 5-19 7-6 2-11 5-3-1-3-11-9-3-4-3h10l-6-23-4-14-8 8h-2v2h-4l-4-19v-2l16 1 3 1-1-6-3-9 2-9 8-6 9-3z" fill="#494455"/>
<path transform="translate(937,610)" d="m0 0h19l16 1v3l-9 2-6 4-7 8h-2v2l-5 5-7 10-5 15-3 2-1 3-5 3-7 2-2 4-7 6h-3l-1 3h-2l-2 4-4 4h-2v2l-12 5h-7l-8 2-1-2-2-15-6-14v-3l9-5 7-8 3 1v-2l8-5 5-5 3-7 4 1 9 10 3 2 1-5 9-17 7-4 3-3-1-4z" fill="#07080C"/>
<path transform="translate(820,612)" d="m0 0 3 3 1 2 12-2 9 2 1 1h14l8-3 9-1 2 3 1 1h7l-1 4-3 2 6 3 5 8h-3l-1 5-4 6-5 4-6 2v2h-2l3-10-4-3-4-1-17-1-1 4-7 3-4 4h-12l-6-2-4 2-21 2-17 5-13 6-9 4-10 5-2-1 9-6 4-3h2v-2l11-9 6-5 5-5 7-6 8-8 6-2 9-1v-2l8-3-1-6z" fill="#3B3954"/>
<path transform="translate(1250,607)" d="m0 0h10l7 1 25 3-3 2-26 4-10 3-21 7-2 2-12 3h-4v6l-3 1h-6v2h-6v-1h5l1-4h-7l-2 2v-2h-13l-18 2-7 1h-15l-10 2-6 2-5 5-9 1-12 3-5 5v3l1 4-5 7h-2l-2 5-5 5h-3l2 9h-2l1 3-2 3-3-11-2-9-2-5-2-10-4-11v-2l3 1 8 17 1 3 6-2 1-3h2l2-5 3-5 2-10 5-5 7-6 16-3 41-4 32-5 4-3 15-5 13-3 10-2h9z" fill="#4B5973"/>
<path transform="translate(847,654)" d="m0 0h6l6 5 10-2-1 2h-2l-1 3-9 5 3 9v8l-4 6-8 5-13 4-9 6-7 4-15 10-14 10-10 8-5 5-10 9-17 11-5 2v2h-3l5 5 3 2 1 5-15 5-14 3h-4l5 7-1 2-5-4v-2l-12-6-14-6-5-1-4-8-3-3v-1l30-4h23l3 1h7l10-7 5-5 7-6 7-8 8-8h2l1-3 8-6 9-9 5-3 11-8 11-7 11-6 14-7 3-1 1-3 2-1-1-7-2-2-1-7z" fill="#5696AC"/>
<path transform="translate(977,625)" d="m0 0h10l13 2 9 4 3 13h2l1-6 3-2 2 14v12l-2 21-3 7-4 2v-8l-8 2-24 12-3 2-6 1h-11v-3l7-4 11-3 1-14-5-30v-7l-6-2v-2l-5-1-5 3-1-3 6-3 5-4z" fill="#07080C"/>
<path transform="translate(533,577)" d="m0 0h5l7 8 3 7 4 22 1 26 1 3 2 21h10l1 2h-9l-3-1-27 1-13 1h-3l1-17 3-14 3-9 8-42 3-6z" fill="#494455"/>
<path transform="translate(858,673)" d="m0 0 2 2 2 5v17l-3 8-4 6-4 1-1 3-8 5-16 6-2 2h-3v2l-6 3-17 9-17 11-3 1v2l-11 6h-3v2l-8 4-10 1-4 1-3-2v-2h3v-2l16-10 9-7 3-1 1-3 5-4h2l2-4 16-12 10-7 24-16 12-5 7-2 7-5 2-4z" fill="#576884"/>
<path transform="translate(539,572)" d="m0 0 9 2 8 6 6 9 4 13 4 26 1 12 32-2 15-2h7l6 4 1-3h17v1l-16 1 8 11 4 7-1 4-8-6-7-1v2h-8l-2-7 1-5h-2v-2l-6 3-5 11-5 23-17 1h-8l-3-2-3-9-3-4-2-48-3-15-4-7-2-4h-2l-5-5-7-8-5-5z" fill="#AFF6FE"/>
<path transform="translate(801,762)" d="m0 0v3l-6 3-4 3-7 3-13 10h-2l-1 3-4 3h-2l-1 3-4 1v2l-11 7-8 3 2 4v3l3 1-5 2h-3v2l-7 4h-2v-3l-4 2-1 3h3l-1 3h-2l-2-5 3-6 1-4v-2l-10-6-5-4-15-9h-16l-2-4h4l1-4 2-9 1 2 8 1 11 5 9 5 3 2v2l4 2-2-4-1-3 21-5 10-3h3l-1-5 3 2h9l10-4 4-1v-2l6-2h10z" fill="#414B63"/>
<path transform="translate(278,678)" d="m0 0h6l11 6 2 1 1-2 7 4 17 17 8 7 2 4h2l5 6 5 4 5 5 8 6 2 1v2l10 4-2 6-2 1-2-1v-2l-4-2-3-3-7-4-5-4-9-6v-2l-6-1-5-3v-2h-3l2 4 2 1 1 3 8 5 2 6 8 7 4 1-1 7-7 1-10-5-8-10-2-1v-2h-2l-4-6v-2l-4-2-6-8-4-5-10-6-6-3v-2l-5-2-1-5 1-2h2v-7l-2-4h6l-7-4z" fill="#494354"/>
<path transform="translate(909,596)" d="m0 0h6l5 2-2 6-7 4v4l6 1 8-1v2l-5 4-2 4h-2l-1 9-8 17-4-2-7-7-7-10v-2l-4-1-3-3 4-2 1-3-8 1-2-1v-4l-12 3-5 2h-14l-8-3-10 1-4 1-4-5 1 6-6 3h-3v2l-5 2h-5-3l6-5 4-4h2v-2l4-2 3-3h2v-2h3v-2l5-3 2 1v1l13 2 1 3 37-6 16-5z" fill="#4B5B74"/>
<path transform="translate(979,613)" d="m0 0h10l6 1v1h-14l-16 4-8 5h-2v2l-8 7-1 2h-2l-2 6-5 10-3 11v18l4 14 6-1h3l4 2 1 5-1 2-4-5-6 1-1 2h2l5 9v3l-9 3-6-1-4-2-1-2-9-2-5 2h-5l3-3h3v-13l-6-7-2-1-1 3-10 7-14 9-21 11h-3l4-12v-21h2l2 15h3l11-1 11-4h2v-2l7-6 4-5 5-3 6-5 4-4 9-3 1-4 3-1 2-9 4-9 8-11 3-1v-2l7-6 5-5 5-3h9z" fill="#3C3D58"/>
<path transform="translate(1150,595)" d="m0 0h11l48 5 5 1v1h-12l-4 1h-4l-14 1-4 2-16 4-10 3-27 5-13 3-10 4-7 5-3 13-5 15-2 2h-5l-11-15h-3l1-3 2-3 4 3v2l3 1 1 2 7 1 3-10 4-20 6-7h2l1-3 14-7 20-4h7z" fill="#4F7C91"/>
<path transform="translate(635,638)" d="m0 0h14l1 17 4 16 6 11 2 4-14 1-1 3-3-9-4-2-6 2-7-1-7-3-14-2-1-1-3 10-1 1-23 1-2-1v7l5 16 2 11-1 4-7-23-2-5-18-1v-1l13-2h4l3-12h27l2-14 3-12 5-9 3-2h3v2h2l1 11 8 1v-2h7l8 6-1-5-7-11-3-3v-2z" fill="#64CCDE"/>
<path transform="translate(1053,585)" d="m0 0 21 1 13 2-3 1v2l-6 2 3 12 1 9v11l-4 8-7-1-7-4v5l-2 1-5-14-3-4v-2l-4-2-8-6-10-3-4-5 1-5 13-6z" fill="#7DEFFA"/>
<path transform="translate(435,674)" d="m0 0h34v2l-3 3-2 5v9l3 7 1 3 8 2-1 3-3 2v2l-6 3-27 5-2-3-1-7-6-8-3-8v-12l1-7z" fill="#393550"/>
<path transform="translate(281,677)" d="m0 0h24l8 3-1 4 4 2 5 5 2 4h2v2l4 2 10 9 2 1v2l4 2 12 11 10 8 2 1v2l3 1v3h9l6 5 2 4-1 9-3 9h-2l-2 4h-8l-4-3v-2l-4-2-3-5 1-5 6-10-6-2-4-2v-2l-5-2-7-6-3-3-3-2v-2l-4-2-3-3v-2h-2l-7-8-10-9-11-11-6-3-3 1-14-7z" fill="#576985"/>
<path transform="translate(448,567)" d="m0 0 9 1 10 5 6 5 6 10 3 10 1 5 1 24 3 6 2 1 3 9v12l-4 16-1 5v3l-4-4v-3l-5-1-6-30-1-24-3-12-7-19-3-6-4-4-3-4v-4z" fill="#5796AC"/>
<path transform="translate(1183,635)" d="m0 0 14 1 1-1 7 1-1 4h8l7 1-2 1-2 5-7 2-1 2-5 1 1-2-6-1-11 4-10 3-3 3-17 2v-2l-11-1 1-3 2-2v-2l-5-1-3 2-2-3-5-2v-3l-7 1 1-3 10-3 11-1h13l12-2z" fill="#4B5066"/>
<path transform="translate(992,596)" d="m0 0 9 1 5 4 7 14v-9l3 3 2 9 1 4v9l-6-3-1 5-7-6-12-4h-16l-12 4-9 7-5 5-6 9-4 10-1 6v13l3 11 1 5-6 2-3-7-2-8v-18l4-14 7-13h2l2-4 5-5h2v-2l10-6 16-4 14 1 10 4-8-15-1-3h-2z" fill="#A4F2FB"/>
<path transform="translate(977,578)" d="m0 0h20l15 3 8 6 5 6v2h3l3 6 2 3 9 4 8 7 6 5 4 8 1 5-2 1-8-12-8-9-3-1 3 4v3l3 1 3 6v2l-5-2-4-7-3-1 1 5v10l-2-4-4-16-4-10-5-5v-2l-4-2-4-4v-2l-5-1-1 2h-3l6 11 2 3v13l-3-3-7-13-6-3h-5l-1 2-6-7 8 1-5-3h-16l-1 3-12 1-3-2 10-3-2-1h-19l-6 1h-11v-1l24-4h13z" fill="#586B86"/>
<path transform="translate(546,664)" d="m0 0h9v2l-3 2v3l2-2h3l1 8-3 7-4 5-6 2-2 4h-8l-7 1-1 2-5 2h-5l-3-7-1-1v-9l1-7 5-3v-3l-5-3v-1z" fill="#3A3652"/>
<path transform="translate(851,623)" d="m0 0h14l1 2-18 6-13 4v2l5 2-2 2-4 2h-6l-7-2-6 1-16 8-12 3-5 2h-3l-1 3-20 8-11 6-2-1 9-6 4-3h2v-2l11-9 6-5 10-10 24-6 21-5z" fill="#080A0F"/>
<path transform="translate(707,762)" d="m0 0h19l9 3 12 8 1 5-15 5-14 3h-4l5 7-1 2-5-4v-2l-12-6-14-6-5-1-4-8-1-3z" fill="#7BEDF8"/>
<path transform="translate(904,731)" d="m0 0 1 2-6 2v2l-13 7-8 3-32 18-11 7-10 6-6 3-10 6-14 7-29 12-12 3-3-1 11-10 13-8 7-4 10-2 18-8 12-6h2v-2l16-8 9-5 6-1v-2l17-6 16-8z" fill="#AFF5FD"/>
<path transform="translate(313,680)" d="m0 0 19 9 33 22 7 5 4 7 9 5 4 4-2 4h-10l7 2 5 5 2 3v7l-3 7-1-3 1-9-4-6-3-2-9-1-1-3-2-1v-2l-5-2-12-11-8-7-3-2v-2l-4-2-10-9-2-1v-2h-2l-5-7-6-4z" fill="#5A9DB2"/>
<path transform="translate(866,588)" d="m0 0h18l7 4 4 1h14v1l11 1 1 2 4 1-2 6-10 3 2-3h3l-1-3 3-3-11-1-12 3-10 3-6 2-29 5h-8l-2-2-12-2-2-1 7-6 7-3 12-5z" fill="#3A3854"/>
<path transform="translate(852,665)" d="m0 0 2 1 1 7-8 7-16 8-11 6-11 7-10 8-5 3-5 4-5 5-5 4-27 27h-2l-1 3-10 7h-7l-3-2 7-3 3-1v-2l5-5 3-1 2-4 7-8 5-5 6-5h2l2-4 9-7 3-1v-2l6-4 3-3h3l1-3 6-4 11-8 22-13 4-1v-2l11-6z" fill="#64CCDE"/>
<path transform="translate(682,774)" d="m0 0 1 2 8 1 11 5 9 5 3 2v2l4 2-2-4-1-3 21-5 12-3-15 15-5 4h-4l1 7h4v3l-3 2 2 7 9-3h6l-2 2-6 1v2l-7 4h-2v-3l-4 2-1 3h3l-1 3h-2l-2-5 3-6 1-4v-2l-10-6-5-4-15-9h-16l-2-4h4l1-4z" fill="#4B647C"/>
<path transform="translate(393,734)" d="m0 0 5 1 21 9 18 10 13 8 4 3 5 13 1 1v7l-5-2-5-4-11-6-17-12-16-10-10-4-1-4h-2l-1-4h2l1 2v-5z" fill="#7CEEF9"/>
<path transform="translate(906,687)" d="m0 0 5 5 3 6v3l-12 5-16 6v1h6l-4 4-25 11-13 5-11 5-13 4h-2v-2l14-8 8-6h2l2-4 7-6 19-9 15-9z" fill="#7BEAF6"/>
<path transform="translate(858,673)" d="m0 0 2 2 2 5-1 12-2 3h-2l-1 4-12 6-11 4-17 9-11 8-8 6h-2v2l-6 3-13 12-6 5-26 13-5 1v-2h3v-2l16-10 9-7 3-1 1-3 5-4h2l2-4 16-12 10-7 24-16 12-5 7-2 7-5 2-4z" fill="#587C97"/>
<path transform="translate(605,673)" d="m0 0 1 2 14 1 10 4h6l6-2 4 4 2 10-2 4-4-3v-2l-9-3h-17l-4-2h-3l-2 4h-6l-2 12-3 2-10 1h-5l-1 3-5-16 1-7 25-1 3-10z" fill="#5796AC"/>
<path transform="translate(861,697)" d="m0 0h1v7l-5 13-8 7-4 4-3-2-7 3-13 4-9 5-9 6-3 1v2l-4 1v2l-12 8-13 4-8 5-3 2 9-2 4-4h6l4-1h6l3-1v2l24-8h2v2l-16 8-2-1v-1l-11 4h-10l-1 1h-5v2l-10 5-8 1h-6l-1-1-1 3-1-5-4-2 1-3h8l10-4h2v-2l12-6h2v-2l17-11 10-6 10-5 3-2h3v-2l8-4 17-7 7-6h2l5-10z" fill="#4A5972"/>
<path transform="translate(486,627)" d="m0 0 17 4 15 3-4 16-1 17 3 2-2 6-2 3-14-2-4-3v-31l-1-8-4-2-3-3z" fill="#AFF5FE"/>
<path transform="translate(828,603)" d="m0 0 2 1v1l13 2 1 3 37-6 2-1h13l5 1 1 5-3 3-10 2-2 1h-12l-10 2-5 2h-14l-8-3-10 1-4 1-4-5 1 6-6 3h-3v2l-5 2h-5-3l6-5 4-4h2v-2l4-2 3-3h2v-2h3v-2z" fill="#4D6A82"/>
<path transform="translate(550,697)" d="m0 0h3l5 5 7 11 5 11 5 17 4 6 5 6 5 12 2 3 2 4 5 8 1 4v7l-3 9-3 3h-11l-6-5-1-5 7 5h8l4-2-1-14-3-5-4-3-7-1-5 2v15h-1l-1-5v-10l3-5 6-4h6v-2l-9 2-7 4-9 4 1-5h4v-2l7-4-2-12v-9l-5-5-4-9-5-15-4-7v-3h-2z" fill="#4B5973"/>
<path transform="translate(457,579)" d="m0 0 3 3 6 14 4 11 2 10 1 26 3 11 2 11v6l5 1 2 7 1 2v17h-2l-2 4-3 2h-9l-5-5-2-6v-9l4-8 9-4-4-16-2-9-1-4-1-26-3-16-4-12-4-8z" fill="#576884"/>
<path transform="translate(599,772)" d="m0 0 5 5h3l7 3v-3l-1-3 3 1 3 11 3 2 6-1 1 3 17-8 5-2-1 5-13 7-6 4 1 4 10-1 13-7-1-7 3 3 2 9-16 8h-2v2l-10 1-10-5-9-4-8-3-3 1-1-16-4-8z" fill="#4D6880"/>
<path transform="translate(626,688)" d="m0 0h10l6 3v2l4 2 3 3h11l5 1h11l-4 2-13 3h-8l3 8 2 2 3 9 4 8v2h2l7 21 4 11h-6l-4-8-5-12-6-10-4-11-3-7v-3l-10 2-4-5-1-3v-9l-1-4 7-1v-3l-13-2z" fill="#5C758F"/>
<path transform="translate(390,758)" d="m0 0 1 3v4l5 2 14 8 12 5 9 6v2l5 2 8 6 6 4 5 6-1 6h2l-2 4-5-3-4-4 6 1-3-2-16-8-7-5-14-7-8-5v-2l-9-2-1-3-6-1-3-1v-5l-1-3h2l1-4 1-2h3z" fill="#404C64"/>
<path transform="translate(445,568)" d="m0 0h6l2 5 6 10 5 12 4 14 1 8 1 26 2 6 3 16 1 7 2 1-9 2-4-1v-2h-2l-2-5-1-15-1-10v-11l2-5 1-19-2-15-6-13-6-8z" fill="#494F65"/>
<path transform="translate(393,744)" d="m0 0h2l1 4 10 3 16 10 19 13 10 6 9 6 1-2 5 9 4 5 6 2-1 2-8 2-5 2-1 4v10l2 9-4-4-1-2v-12l4-8 6-2 1-2-4-1-10-5-10-7-16-10-10-6-9-6-9-5-7-5z" fill="#5696AC"/>
<path transform="translate(455,568)" d="m0 0 7 2 11 8 6 10 3 10 1 5 1 24 3 6 2 1 3 9v12l-6 12-2-2-5-22-1-33-1-10-3-4v-2h-2l-4-6-7-9-6-8z" fill="#64CCDE"/>
<path transform="translate(532,576)" d="m0 0h7l5 5 7 10 7 12 4 11 1 8 2 27 1 15h-10l-2-10-1-11-1-8-1-21-4-22-5-10-4-4h-7z" fill="#587C97"/>
<path transform="translate(480,704)" d="m0 0h9l7 8 4 6v2h2l1 5h2l6 16 8 24v4h2v8h2v-5h1v6l6-1-1 3h-5l-1 4-4 2-1 4v9l2 7 8 5 7-1 2 5-3 1h-7l-10-6-4-8v-11l4-8 3-4-1-5v-3l-4 4-2-4-10-30-2-9-2-6h-2l-2-5-3-1-3-4-3-7-1-2h-7z" fill="#4F7C91"/>
<path transform="translate(278,678)" d="m0 0h6l11 6 2 1 1-2 7 4 17 17 8 7 2 4h2l5 6 5 4 5 5 8 6 2 1v2l10 4-2 6-2 1-2-1v-2l-4-2-3-3-7-4-5-4-9-6v-2h-2l-3-3v-2l-5-2-2-1v-2l-3-1v-2l-4-2-7-6-4-6v-2l-4-2-7-6v-2l-4-2-5-2-7-4z" fill="#494F65"/>
<path transform="translate(602,731)" d="m0 0 2 4 8 29v5l-8 1 10 5 2 4-1 3-7-4-3 1-5-6-5-1-2-4-4-2-1-2 1-5-1-15 10-9z" fill="#7BEDF9"/>
<path transform="translate(1150,595)" d="m0 0h11l10 1-4 2-4 1-19 2-19 4-6 2-8 2-7 3h-3l-2 4-6 5-2 10-3 18-3 9-2 2h-5l-11-15h-3l1-3 2-3 4 3v2l3 1 1 2 7 1 3-10 4-20 6-7h2l1-3 14-7 20-4h7z" fill="#587E98"/>
<path transform="translate(539,572)" d="m0 0 9 2 8 6 6 9 4 13 4 26 1 35 2 6 3-1h22l5 1 1-2-1 9-1 3-17 1h-8l-3-2-3-9-3-4-2-48-3-15-4-7-2-4h-2l-5-5-7-8-5-5z" fill="#7CEFFA"/>
<path transform="translate(1252,673)" d="m0 0 11 1 36 7 45 9 5 3v2h2l10 14 5 6 3 6 12 3 75 16 34 7 18 4 6 2v1l-10-1-70-14-31-6-34-8-6-5-1-4-15-20v-2l-18-4-63-13-14-3z" fill="#53637F"/>
<path transform="translate(533,577)" d="m0 0h5l5 5-1 2-3-2h-3l-1 7v9l-4 18-2 7h-2l-1 6-5 15-2 9-2 6-2 9-3-1 1-17 3-14 3-9 8-42 3-6z" fill="#4A5066"/>
<path transform="translate(918,707)" d="m0 0h3l5 7v3l-17 6-12 3-48 16h-9v-2l14-5 2-2 10-3 9-5 14-5 4-3 13-5z" fill="#ACF4FD"/>
<path transform="translate(632,689)" d="m0 0 5 1 3 3-1 2h-8l-1 2-2 1v-3h-3l2 10 3 7v6l-13 5h-3v-2h-6l-2-2-1-8-4-5 9-3-4-2 9-6 4-1 5-1 4-3z" fill="#3B3753"/>
<path transform="translate(489,693)" d="m0 0 4 2 9 11v2l3 1 8 16 5 12v3h2l1 2 2 28v7h-2v-8h-2l-7-23-7-19v-2h-2l-1-5h-2l-9-13-2-2-6-1 5-7z" fill="#5696AC"/>
<path transform="translate(579,772)" d="m0 0 7 1 7 6 1 3v14l-4 3h-8l-7-5-4 3-5 1-5-6-1-8h12 1l1-9z" fill="#414D65"/>
<path transform="translate(1e3 684)" d="m0 0h6v6l-4 6h-3l-1-2h-7l-19 7-15 7-6 1-3 4-8 4-12 7-11 5h-4v2h-7l4-3 20-10-10-4-4-6 7 2v2l6 2 7-1 6-2-5-9v-2h-2l1-3 6-1 5 6 4 2 9-1 13-5 19-10z" fill="#4C5C75"/>
<path transform="translate(1022,621)" d="m0 0 4 5 5 12 4 17v18l-7 2-3-2-1-3-2-25-1-10-3-1v-2h-2l-2 5-2 3-1-5h-2l1-4h2l1-3 4 1 1 1 1-8 2 1z" fill="#566783"/>
<path transform="translate(994,579)" d="m0 0h10l10 3 10 9 1 4h3l3 6 2 3 9 4 8 7 6 5 4 8 1 5-2 1-8-12-8-9-3-1 3 4v3l3 1 3 6v2l-5-2-4-7-3-1 1 5v10l-2-4-4-16-4-10-5-5v-2l-4-2-4-4v-2l-5-1-1 2-4 1-6-6v-2l-5-2z" fill="#4B5064"/>
<path transform="translate(656,674)" d="m0 0 4 5 2 4 4 2 5 3v2l10 2 15-1 16-4 8-3 3 1-4 3-17 4-19 5v2l-6 2h-5v-1h-10l-7-1h-6l-2-3 1-9 14-1-6-9z" fill="#7CEFFA"/>
<path transform="translate(609,685)" d="m0 0 5 1 2 1h17v1l-15 3-10 4-6 4-2 9 3 9 1 7-21-3-2-7v-9l15-2 2-1 3-12 6-1z" fill="#4F7C91"/>
<path transform="translate(393,734)" d="m0 0 5 1v9l7-1 13 7 3 3 3 1 4 4 11 8 9 6 9 5 1-2 2 4v7l-5-2-5-4-11-6-17-12-16-10-10-4-1-4h-2l-1-4h2l1 2v-5z" fill="#63CADC"/>
<path transform="translate(971,595)" d="m0 0 9 2 17 6 3 7-1 3-7-2-12-1-7-2-37-1 3-3 9-2 16-2 4-4z" fill="#07080C"/>
<path transform="translate(469,802)" d="m0 0 6 1 4 8 2 3v9l-2 7h-14l-3-3-2-7v-10l2-4z" fill="#414C64"/>
<path transform="translate(906,686)" d="m0 0 3 1 6 7v10l-1 3-5 2 1 2-13 6-5 2-5 3-12 4-9 5-10 3-5 3-11 4-7-1 2-2 13-5 12-5 26-11 5-3h-11l4-2 14-6 12-4 4-1-4-9-4-5z" fill="#455A73"/>
<path transform="translate(299,677)" d="m0 0 9 1 5 2-1 4 4 2 5 5 2 4h2v2l4 2 10 9 2 1v2l4 2 12 11 10 8 2 1v2l3 1v3l-6-1-6-4v-2l-5-2-5-4v-2l-4-2v-2l-4-2-8-7v-2l-3-1-4-4-7-6v-2l-4-2-5-5-7-6v-2l-5-1z" fill="#587C97"/>
<path transform="translate(1100,642)" d="m0 0 4 4 4 1 1 3-10 3-4 6 2 5-5 7h-2l-2 5-5 5h-3l2 9h-2l1 3-2 3-3-11-2-9-2-5-2-10-4-11v-2l3 1 8 17 1 3h6l7-10 6-11z" fill="#4A4F65"/>
<path transform="translate(1067,586)" d="m0 0 17 1 3 2h-3v2l-6 2 3 12 1 9v11l-4 8-7-1-7-4v5h-1l-3-16 4 1 5 2h6l1-2v-9l-2-8-4-10v-3z" fill="#64CCDE"/>
<path transform="translate(731,766)" d="m0 0 8 1 6 5v2l-21 7-11 4-2 1-8-6-3-3v-2l21-6z" fill="#B0F6FE"/>
<path transform="translate(1361,617)" d="m0 0 16 1 100 11 69 8 49 7 5 1v2l-24-3-76-10-36-4-67-7-19-1-17-4z" fill="#4C566E"/>
<path transform="translate(545,587)" d="m0 0 2 3 3 11 2 17 1 22 1 3 2 21h10l1 2h-9l-10-3-2-4v-10l-1-10 1-19v-24z" fill="#4A4F66"/>
<path transform="translate(924,589)" d="m0 0h4l1 2h13l1 4-5-2 1 4-6 3v3 3l-9 3 6 1-4 4-1-2-8 2-6-1-2-4 2-2 9-3h3l2-6-7-1v-1l-12-1-2-1h-9v-1l12-2z" fill="#4B4E61"/>
<path transform="translate(992,596)" d="m0 0 9 1 5 4 7 14v-9l3 3 2 9 1 4v9l-6-3-1 5-3-3h3l-2-7-19-6h-20l4-2 13-1 10 2 7 3-8-15-1-3h-2z" fill="#7FE7F3"/>
<path transform="translate(515,668)" d="m0 0 5 2-1 4-4 2-1 7v9l2 2v7l-3 4-11-1h-3l-7-9-3-2v-6l5-1 15 2h2l2-13 2-6z" fill="#4F798E"/>
<path transform="translate(428,678)" d="m0 0 11 1 8 2 1 2v6h2v6l-3 3h-17l-1 2-2-6v-12z" fill="#4B4E63"/>
<path transform="translate(643,714)" d="m0 0h5l4 10 5 13 6 10 7 17 7 1v2l4 2 1 2v10l-2 2-4-9v-2l-4-2-1-4-5 2h-3l-4-12-3-15-4-8-2-1-1 2v-3h-2l-5-12-2-4z" fill="#4B5871"/>
<path transform="translate(536,573)" d="m0 0 4 2 8 7 5 5 2 4h2l6 8 2 6 2 12 1 23v25h-2l-1-7-2-22-1-17-3-12-9-16-8-12-3-2-6-1z" fill="#5797AD"/>
<path transform="translate(565,667)" d="m0 0 4 2 2 6v14l-1 3-10 1 13 1 5 12 4 14 3 3 1 6v10l-4-5-5-16-6-15-3-5v-3h-18l4-6 7-1 2-7 5 1-1-8-2-4z" fill="#5695AB"/>
<path transform="translate(621,636)" d="m0 0 5 1 5 3 1-3h17v1l-16 1 8 11 4 7-1 4-8-6-7-1v2h-8l-2-7 1-5h-2v-2l-5 1 5-5z" fill="#7CEFFA"/>
<path transform="translate(886,713)" d="m0 0h6l-4 4-25 11-13 5-11 5-13 4h-2v-2l14-8 10-7 6-1v-2l19-5 9-2h4z" fill="#79EAF6"/>
<path transform="translate(748,778)" d="m0 0 3 1-12 12-6 5-1 2 12-6 4-1 2 2-3 6-8 4-1 4 2 3v3l-11 3-2 1-2-9 4-1v-3h-4l-1-7 5-2 12-11z" fill="#3E4861"/>
<path transform="translate(1183,635)" d="m0 0 14 1 1-1 7 1-1 4-7 2h-35l-19 2-10 1-3-1-4 1 1-3 10-3 11-1h13l12-2z" fill="#414D65"/>
<path transform="translate(547,781)" d="m0 0h6l3 8v4l-19 5-8 1-1-2 1-11 12-4z" fill="#4A4455"/>
<path transform="translate(393,747)" d="m0 0h1l1 7 12 8 10 5 5 4 14 8 10 7 12 8 6 2 2 3h-7l-7-3v-2l-4-2-5-3v-2l-5-2-14-7-12-8-20-10z" fill="#4F7C91"/>
<path transform="translate(494,640)" d="m0 0 2 1 2 17 8 1 1 3 5 1 1 4 3 2-2 6-2 3-14-2-4-3z" fill="#7AECF8"/>
<path transform="translate(545,696)" d="m0 0h5l2 7h2l5 10 5 15 4 9v2l4 2 1 1v17l-4 1-3-5-8-32-2-10-5-9 2 12-2-2-2-8h-2v-2h-2l-2-7z" fill="#4B5066"/>
<path transform="translate(587,764)" d="m0 0 4 4 2 4 5 8 1 4v7l-3 9-3 3h-11l-6-5-1-5 7 5h8l4-2-1-14-3-5-4-3-7-1-5 2v15h-1l-1-5v-10l3-5 6-4h6z" fill="#53768F"/>
<path transform="translate(907,620)" d="m0 0h3l1 4 3 3-3 9-10 2-7-3-5-6v-2l-4-1v-3l5-1 14-1z" fill="#63C9DB"/>
<path transform="translate(546,587)" d="m0 0 3 4 4 12 1 1 2 10 1 16 1 4 2 10 2 17v3h-6l-2-10-1-11-1-8-1-21-4-22z" fill="#586985"/>
<path transform="translate(557,695)" d="m0 0h11l8 17 6 20 3 5 2-3 1 8 3 1-2 1 1 18-2 2-3-7-4-16-5-12-6-18-7-13-6-2z" fill="#507E93"/>
<path transform="translate(1042,653)" d="m0 0 9 1 2 2v14l-3 9-7 1-4-2 1-24z" fill="#566783"/>
<path transform="translate(654,785)" d="m0 0 3 3 2 9-16 8h-2v2l-10 1-10-5-9-4-8-3-3 1v-7l1-2 7 1 5 5 9 6 10 4v-3l11-3 11-6z" fill="#414A62"/>
<path transform="translate(539,572)" d="m0 0 9 2 8 6 6 9 4 13 4 26v38l-2-1-2-48-3-15-4-7-2-4h-2l-5-5-7-8-5-5z" fill="#64CCDE"/>
<path transform="translate(883,603)" d="m0 0h13l5 1 1 5-3 3-10 2-2 1h-10v-2h-14v-4l17-4z" fill="#5797AD"/>
<path transform="translate(527,588)" d="m0 0 2 4 1 6-1 4h-2v9l-3 14-2 11-2 10-1 7-2 6-2 9-3-1 1-17 3-14 3-9 7-38zm-9 58m-2 1-1 4 3-4z" fill="#45566F"/>
<path transform="translate(904,731)" d="m0 0 1 2-6 2v2l-13 7-8 3-16 9-12 5-9 5-9 1-4-1 16-8 5-3 6-1v-2l17-6 16-8z" fill="#79E9F5"/>
<path transform="translate(483,705)" d="m0 0 4 1 9 10 4 7 5 9 7 17 5 19 2 3-4 4-2-4-10-30-2-9-2-6h-2l-2-5-3-1-3-4-3-7z" fill="#4C677F"/>
<path transform="translate(1098,625)" d="m0 0 2 2-3 1-2 7v9l-2 10-6 10h-2l-1 4-6 1-10-20-3-3 3-2 7 11 3 4h5l3-6 5-18 2-6z" fill="#576884"/>
<path transform="translate(451,570)" d="m0 0 5 4 5 6 7 14 3 5 2 5 2 11v18l4 23 2 14 3 1-1 4v-3l-5-1-6-30-1-24-3-12-7-19-3-6-4-4-3-4z" fill="#587C97"/>
<path transform="translate(905,693)" d="m0 0h5l2 3-1 4-10 4-22 7-8 1 1-3 16-9 9-6z" fill="#ACF4FD"/>
<path transform="translate(682,784)" d="m0 0h6l16 9 10 8 8 4 5 2-1 2 2 7 9-3h6l-2 2-6 1v2l-7 4h-2v-3l-4 2-1 3h3l-1 3h-2l-2-5 3-6 1-4v-2l-10-6-5-4-15-9h-11l-2-1z" fill="#556581"/>
<path transform="translate(682,774)" d="m0 0 1 2 8 1 11 5 9 5 3 2v2l4 2h3l2 4v4h-5l-13-10-10-6-6-3h-5l-5 9-4-2v-2h4l1-4z" fill="#5797AD"/>
<path transform="translate(521,669)" d="m0 0 4 2-1 6h10v2l3 1 1 5-1 2-15 3h-7l-1 3-1-1v-9l1-6 2 2 1-1v-2l5-1z" fill="#4A4C61"/>
<path transform="translate(584,721)" d="m0 0 16 1 4 2v5l-9 10-3 1v2h-4l-4-19z" fill="#3B3955"/>
<path transform="translate(602,678)" d="m0 0 1 3-2 4-23 1-2-1v7l5 16 2 11-1 4-7-23-2-5-18-1v-1l13-2h4l3-12h18z" fill="#64CCDE"/>
<path transform="translate(977,622)" d="m0 0h16l12 4 4 3v2l-4-1-5-2-13-2h-10l-10 3-6 5-6 3-7 8-5 12-1 5v16l2 7 1 8-2-3-3-8-1-5v-13l2-9 7-14 5-6 12-9z" fill="#43506A"/>
<path transform="translate(844,755)" d="m0 0 4 1-13 8-28 12-16 6-6 3-3-1 13-8 22-11z" fill="#517991"/>
<path transform="translate(489,693)" d="m0 0 4 2 9 11v2l3 1 8 16 6 15 1 3v7l-3-4-11-23-6-11-8-10h-6z" fill="#64CCDE"/>
<path transform="translate(471,677)" d="m0 0h6l5 5 1 4-3-2-1 2h-2l1 3-1 8-2 3h-6l-3-3-1-3 1-13z" fill="#3B3853"/>
<path transform="translate(1429,644)" d="m0 0 2 1-12 11-4 3h-2l-2 4-13 10-1 1h-6l-4-1-17-3-10-2-34-6-1-3 11 1 5 1 8 2 14 2 6 1 14 3 8 1h6l9-7 10-9z" fill="#4A5066"/>
<path transform="translate(1242,638)" d="m0 0 3 1 2 1h8l-4 4 14 2 22 5 8 2-1 3-36-6-18-4-7-1v-2h2v-2l7-1z" fill="#4A4F65"/>
<path transform="translate(682,772)" d="m0 0 8 2 15 6 6 5 16-6 18-6h2l1 5-15 5-14 3h-4l5 7-1 2-5-4v-2l-12-6-14-6-5-1z" fill="#63CBDD"/>
<path transform="translate(483,676)" d="m0 0h2l4 10v11l-6 7-3 2h5l4 6 2 5 6 7v2h2l4 8v5l-3-3v-2h-2l-3-5-8-13v-2l-4-1h-9l-3-3 5-5-4-1 9-2 3-4h2l-1-17z" fill="#4A536A"/>
<path transform="translate(814,779)" d="m0 0 4 2-5 4-16 8-28 12-9 2 5-5 5-3 22-10 9-4z" fill="#7AECF8"/>
<path transform="translate(635,638)" d="m0 0h14l1 17 1 13-4-2-5-13-8-11-1-3z" fill="#3F4661"/>
<path transform="translate(579,772)" d="m0 0 7 1 7 6v6l-8-2h-2l-2 8-4 1-3-2-1-12 1-3z" fill="#3C3954"/>
<path transform="translate(645,706)" d="m0 0 3 1v4h3l1-3 3 5 5 12 3 6v2h2l7 21 3 7-1 3-4-6-10-22-8-18-2-4-8-1z" fill="#5798AE"/>
<path transform="translate(515,701)" d="m0 0 1 2v11l4 22-1 3v-2h-2l-7-16-6-12-3-3 1-3 11 1z" fill="#3D3E5A"/>
<path transform="translate(651,780)" d="m0 0 3 4 2 5-1 4-13 7-10 1-2-5 10-7 10-5z" fill="#3E3B55"/>
<path transform="translate(1029,600)" d="m0 0 4 4 9 4 8 7 6 5 4 8 1 5-2 1-8-12-8-9-3-1 3 4v3l3 1 3 6v2l-5-2-5-8-4-2-3-9-3-5z" fill="#4D6C83"/>
<path transform="translate(343,697)" d="m0 0 9 5 17 12 5 5 2 4 4 2v2l-9-2-7-5v-2l-5-2-5-5-9-7v-2l-3-1z" fill="#64CCDE"/>
<path transform="translate(949,638)" d="m0 0 2 1-6 9-4 10-1 6v13l3 11 1 5-6 2-3-7-2-8v-18h1l1 18 2-1-2-13 3-10 7-13z" fill="#78E9F5"/>
<path transform="translate(430,611)" d="m0 0h3v10l-3 15-4-2-2-5v23l-2-3-2-9 1-9 2-12 4-6z" fill="#54728B"/>
<path transform="translate(455,568)" d="m0 0 7 2 11 8 6 10 3 10-2 2-3-6-6-8-6-1-8-12-3-4z" fill="#83EFFA"/>
<path transform="translate(554,669)" d="m0 0h3l1 8-3 7-4 5-6 1-4-6-2-6 1-1h9v-3z" fill="#4A4E63"/>
<path transform="translate(1415,732)" d="m0 0 13 2 58 12 22 5 6 2v1l-10-1-70-14-11-2v-2l-8-2z" fill="#4B5770"/>
<path transform="translate(1050,699)" d="m0 0 1 3-4 13-7 14-8 10-10 6-8 1 2-4 11-6 3-1 2-4 6-8 6-10z" fill="#07080C"/>
<path transform="translate(482,629)" d="m0 0 7 5 3 9v12l-2 5-4-1-3-9-2-17z" fill="#7CEEFA"/>
<path transform="translate(555,665)" d="m0 0h14l4 6 2 7-1 9-2 5h-2v-17l-3-7-2-1 4 11v5h-3v-2h-3l-1-11-3 6-2-4v-3l-4 2-3 3 2-7z" fill="#517C92"/>
<path transform="translate(526,777)" d="m0 0h4l-1 3h-5l-1 4-4 2-1 4v9l2 7 8 5 7-1 2 5-3 1h-7l-10-6-4-8v-11l4-8 6-4h3z" fill="#53879D"/>
<path transform="translate(599,772)" d="m0 0 5 5h3l7 3v-3l-1-3 3 1 3 11 3 2 6-1 1 9-5-1-5-4-16-7-2-7-5-3z" fill="#508095"/>
<path transform="translate(626,688)" d="m0 0h10l6 3v2l4 2 3 3h11l5 1h11l-4 2-13 3h-8v7h-3l-2-8-6-4-1-2-4-2 4-2v-2l-13-2z" fill="#4C677F"/>
<path transform="translate(1050,624)" d="m0 0 4 5 4 10 1 7v20l-2 13-2 7h-1v-36l-3-20z" fill="#07080C"/>
<path transform="translate(1396,760)" d="m0 0 23 4 40 9 42 9 3 2-10-1-63-13-35-8z" fill="#4E5D77"/>
<path transform="translate(906,686)" d="m0 0 3 1 6 7v10l-1 3-5 2 1 2-4 2-3-1-6 2-7 2 1-2h-11l4-2 14-6 12-4 4-1-4-9-4-5z" fill="#4E6D85"/>
<path transform="translate(1010,663)" d="m0 0h1v6l-4 7 2 1 1 6h2v7h-1v-6l-8 2-24 12-3 2-3-1 5-3 5-5 13-5 4-7 4-6 5-8z" fill="#3B3955"/>
<path transform="translate(865,636)" d="m0 0h5l2 4-21-1-1 4-7 3-4 4h-12l-6-2-4 2h-14v-1l12-2 8-3 8 2h9v-2l9-6 3-1z" fill="#517D93"/>
<path transform="translate(1520,719)" d="m0 0 11 1 50 9 19 4v2h-7l-71-14z" fill="#4F5D78"/>
<path transform="translate(1252,673)" d="m0 0 11 1 36 7 45 9v3l-25-5-53-11-14-3z" fill="#4B5771"/>
<path transform="translate(469,802)" d="m0 0 6 1 4 8 2 3v7l-5 1v-6l-4-3-6-2h-5l-1 2 1-5 3-3z" fill="#4D6880"/>
<path transform="translate(390,758)" d="m0 0 1 3v4l5 2 14 8 12 5 9 6-3 1-18-8-7-3-10-5-5-2v-6l-3 2 2-5h3z" fill="#4A5872"/>
<path transform="translate(992,596)" d="m0 0 9 1 5 4 3 9v7l-4 1-8-14-1-3h-2z" fill="#ACF5FE"/>
<path transform="translate(684,781)" d="m0 0 7 1 16 9 11 9 5 1 1-2 1 5h4v3l-10-2-10-7-8-6-13-7-5-1z" fill="#567C96"/>
<path transform="translate(561,668)" d="m0 0 2 2v14l-2 4-7 1-2 7h-8l-1-3 2-3 7-3 4-6 1-4 3-5z" fill="#586985"/>
<path transform="translate(909,596)" d="m0 0h6l5 2-2 6-7 4-2 1v-3h-3v-2l-14-2 2-2 9-3z" fill="#4B5872"/>
<path transform="translate(623,689)" d="m0 0h9l-4 2-5 4h-6l-10 6 4 2-9 3 1 2-1 2h-2l-1-4 3-8 7-5 9-3z" fill="#3B3A55"/>
<path transform="translate(465,683)" d="m0 0 1 4v7l3 5 6 1 2-12v-2h2l1-3 2 2 2-2 1 3v7l-3 6-3 2h-9v2h-2l-4-6-1-4v-9z" fill="#414D65"/>
<path transform="translate(565,667)" d="m0 0 4 2 2 6v14l-1 3h-16l-1 3-3-1 3-3 1-2 7-1 2-7 5 1-1-8-2-4z" fill="#4F7C91"/>
<path transform="translate(996,583)" d="m0 0 4 1 9 10 5 9v13l-3-3-7-13-6-3-5-1v-1l12-1-6-8z" fill="#50778E"/>
<path transform="translate(649,688)" d="m0 0h16l10 5v2h-27z" fill="#B0F6FE"/>
<path transform="translate(491,634)" d="m0 0h2l2 8v21l-2 7h-2l-1 5h-3l1-9 3-11v-12l-2-8z" fill="#48667D"/>
<path transform="translate(1066,639)" d="m0 0 5 3v2l3 1 2 5 7 1 2-1 2-4 1 3-3 9-2 2h-5l-11-15h-3l1-3z" fill="#4F7B90"/>
<path transform="translate(470,674)" d="m0 0h9l6 5 1 2v17h-2l-2 4-3 2h-9v-3l9-1 4-4 1-3v-10l-3-1-4-4h-6l-3 3h-2l-2 4 1-6z" fill="#5592A8"/>
<path transform="translate(560,784)" d="m0 0h12l2 6-1 6-7 2-5-6z" fill="#4A4455"/>
<path transform="translate(979,613)" d="m0 0h10l6 1v1h-14l-16 4-8 5h-2v2l-8 7-1 2h-2l-2 6-4 7-1-2 2-7 7-9h2v-2l7-6 5-5 5-3h9z" fill="#465A73"/>
<path transform="translate(571,724)" d="m0 0 2 1v2l4 2 7 18 1 9-3-4-7-9-4-11-1-6z" fill="#4D6880"/>
<path transform="translate(1064,716)" d="m0 0 1 2 2 1-5 9h-2l1 4-9 17-4 2-1-4 4-5 3-8 8-16z" fill="#494354"/>
<path transform="translate(539,572)" d="m0 0 9 2 8 6 6 9 1 6-5-5-9-7-11-9z" fill="#78E8F5"/>
<path transform="translate(801,762)" d="m0 0v3l-6 3-4 3-7 3-5 4-4-1-2-5 8-3-2-2 1-1h10z" fill="#3C3A56"/>
<path transform="translate(437,686)" d="m0 0 10 1v6l-3 1-13 1-4-1 1-5 1-2z" fill="#586985"/>
<path transform="translate(654,785)" d="m0 0 3 3 2 9-18 9h-5v-4l19-10z" fill="#576782"/>
<path transform="translate(609,685)" d="m0 0 5 1 2 1h17v1l-15 3-10 4-6 4-2 3v-9l1-3 6-1z" fill="#507A90"/>
<path transform="translate(596,782)" d="m0 0 3 2v7l-3 9-3 3h-11l-6-5-1-5 7 5h8l4-2 1-3z" fill="#5AA2B6"/>
<path transform="translate(750,780)" d="m0 0h4l1 5-11 8-9 5h-3l2-4 13-12z" fill="#4B6880"/>
<path transform="translate(515,694)" d="m0 0h1v7l-3 4-11-1h-3l-2-3 1-4h8l6-2 3 1z" fill="#4D6880"/>
<path transform="translate(550,609)" d="m0 0h1l1 9 1 22 1 3 2 21h10l1 2h-9l-4-2-2-5-2-17z" fill="#495872"/>
<path transform="translate(526,781)" d="m0 0 2 3-1 17-7-2-1-9 1-5 3-1v-2z" fill="#07080C"/>
<path transform="translate(596,714)" d="m0 0 6 1 2 4v5l-21-3v-6z" fill="#4D6981"/>
<path transform="translate(716,805)" d="m0 0 11 2-1 2 2 7 9-3h6l-2 2-6 1v2l-7 4h-2v-3l-4 2-1 3h3l-1 3h-2l-2-5 3-6 1-4v-2l-7-4z" fill="#4C6179"/>
<path transform="translate(1526,689)" d="m0 0 8 1 30 5 35 7 1 2-10-1-43-8-20-4z" fill="#4B536B"/>
<path transform="translate(625,695)" d="m0 0 5 1 2-1 2 6v7l1 8-4 1-6-16z" fill="#474D67"/>
<path transform="translate(485,821)" d="m0 0h2l-1 7-3 1-1 4-4 3h-7l-7-3-1-4 16 1v-2l4-4z" fill="#5692A7"/>
<path transform="translate(423,628)" d="m0 0 2 1 3 6 2 1-1 12-3 10-2-3-1-8z" fill="#4A5168"/>
<path transform="translate(774,768)" d="m0 0h7l1 2-9 2v2l-11 4h-2l-1 3-4 2-1-3-4-1-2-6 3 2h9l10-4 4-1z" fill="#404B63"/>
<path transform="translate(748,778)" d="m0 0 3 1-12 12-7 6 2 4 2 6h-3l-5-6-4-2v-2l5-2 12-11z" fill="#08090E"/>
<path transform="translate(578,758)" d="m0 0 6 1v2h3l1 3-7 1-16 8-3 1 1-5h4v-2l7-4 1-3z" fill="#424D65"/>
<path transform="translate(904,710)" d="m0 0 3 1-4 1v2l-11 5-5 3-12 4-5 2v-4l18-8 11-4z" fill="#475F78"/>
<path transform="translate(643,714)" d="m0 0h5l4 10 1 9-3-1-1 2v-3h-2l-5-12-2-4z" fill="#4B5066"/>
<path transform="translate(745,791)" d="m0 0 5 1-3 7-8 4-3 3-2-2-3-5 1-2 5-1z" fill="#3B3753"/>
<path transform="translate(490,694)" d="m0 0 4 2 8 10v2l3 1 8 16 5 12-1 3-7-14-5-8-4-8-8-11-3-3z" fill="#78E8F4"/>
<path transform="translate(914,629)" d="m0 0 1 2-8 17-4-2-7-7-2-4 7 2 10-1 2-6z" fill="#3C3955"/>
<path transform="translate(388,762)" d="m0 0 1 2-1 3 2 1h-2v2l5 2 9 5 4 5-1 2-2-1v-2l-9-2-1-3-6-1-3-1v-5l-1-3z" fill="#484D63"/>
<path transform="translate(817,614)" d="m0 0h3l1 5-6 3h-3v2l-5 2h-5-3l6-5 4-4h2v-2h5z" fill="#4C617A"/>
<path transform="translate(543,787)" d="m0 0h11l-1 3-20 6h-4v-5z" fill="#586985"/>
<path transform="translate(706,760)" d="m0 0h23l2 1v2h-24l-27 3-2-1-1 2-1-3z" fill="#5592A8"/>
<path transform="translate(1361,617)" d="m0 0 16 1 38 4 2 2h-9l-30-2-17-4z" fill="#4E5E78"/>
<path transform="translate(943,696)" d="m0 0 5 1 8 9-4 4-4-1-6-7v-2h-2l1-3z" fill="#A3F0FA"/>
<path transform="translate(1067,644)" d="m0 0 4 5 5 7 1 4 4 3 7-3-1 4h-2l-1 4-6 1-10-20-3-3z" fill="#4D677F"/>
<path transform="translate(907,620)" d="m0 0h3l1 4 2 2h-14l-4 1h-9l-2-3 6-2 14-1z" fill="#5691A7"/>
<path transform="translate(649,780)" d="m0 0h2l-1 5-13 7-6 4h-2l-1-8 1 2 17-8z" fill="#576884"/>
<path transform="translate(682,772)" d="m0 0 8 2 15 6 6 5h2l7 8-1 2-5-4v-2l-12-6-14-6-5-1z" fill="#64CDDE"/>
<path transform="translate(906,687)" d="m0 0 5 5 3 6v3l-12 5-9 3h-3l1-3 19-6 1-4-2-2h-11l5-5z" fill="#73E2F0"/>
<path transform="translate(573,688)" d="m0 0 3 4 5 16 2 11-1 4-7-23-2-5-18-1v-1l13-2h4z" fill="#70DEEC"/>
<path transform="translate(1387,726)" d="m0 0 9 1 18 4 3 2 10 2v1h-8l-24-5-9-2z" fill="#52607B"/>
<path transform="translate(649,676)" d="m0 0h7l6 8v2l-12 1-1-2z" fill="#5797AD"/>
<path transform="translate(920,614)" d="m0 0h2l-4 8h-2l-1 7-2 1v-5l-3-1v-4l-6 2h-5l3-2z" fill="#4F758B"/>
<path transform="translate(654,773)" d="m0 0m-2 1h2v2l-19 7-6 3 9-2 9-3-3 3-12 6h-3l-1-2-7 1v-3l11-5 9-3z" fill="#3B3854"/>
<path transform="translate(599,772)" d="m0 0 5 5h3l7 3v-3l-1-3 3 1 3 13-5-2-11-5-2-4-5-3z" fill="#5591A7"/>
<path transform="translate(648,698)" d="m0 0h12l5 1h11l-4 2-13 3h-8l-1 4z" fill="#589CB1"/>
<path transform="translate(554,787)" d="m0 0 2 2v4l-19 5-8 1-1-2v-6h1v5l14-4 10-2z" fill="#4B5066"/>
<path transform="translate(822,743)" d="m0 0 3 1-2 3-12 4-11 6-4 3-4-1 7-6 13-7z" fill="#424561"/>
<path transform="translate(821,769)" d="m0 0 3 1-16 8-18 8h-6l3-3 17-7z" fill="#77E7F4"/>
<path transform="translate(383,774)" d="m0 0 1 4v3l-3 2v2l6 2 3 2-1 3-5-1-2-2-8-1v-3l6-8h2z" fill="#4A4455"/>
<path transform="translate(657,730)" d="m0 0 3 3 7 17 7 13 2 2h-6l-4-8-9-24z" fill="#587994"/>
<path transform="translate(720,684)" d="m0 0 3 1-4 3-17 4-13 3h-9l-10-4-1-2 12 3 15-1 16-4z" fill="#5CA9BD"/>
<path transform="translate(494,663)" d="m0 0h1l2 7 17 3-2 5-14-2-4-3z" fill="#64CCDE"/>
<path transform="translate(641,713)" d="m0 0h9l3 5 4 10 4 13 1 4-4-4-7-16-2-6-1-5h-7z" fill="#586E8A"/>
<path transform="translate(670,765)" d="m0 0h7v2l4 2 1 2v10l-2 2-4-9v-2l-4-2z" fill="#4B647C"/>
<path transform="translate(281,677)" d="m0 0h18v3h3l1 6-5-2-3 1-14-7z" fill="#4D6880"/>
<path transform="translate(949,638)" d="m0 0 2 1-6 9-4 10-2 19-2-1-2-10 3-10 7-13z" fill="#7BEDF9"/>
<path transform="translate(883,603)" d="m0 0h13l5 1 1 5-3 3-10 2-2 1h-10v-1l11-2 2-1 2-5h3v-2l-14 1z" fill="#567A94"/>
<path transform="translate(376,777)" d="m0 0 2 1-5 6-6 4h-5l-2-4 1-4 11-1z" fill="#07080C"/>
<path transform="translate(1371,811)" d="m0 0 7 1 2 1v5l-3 1v3l-7-1-1-5z" fill="#4A5771"/>
<path transform="translate(915,694)" d="m0 0 5 2v6l-3 4 4-3 5 3 1 3-9-1-5 2h-5l3-3h3v-12z" fill="#404B64"/>
<path transform="translate(1008,684)" d="m0 0h3v6l-4 6h-3l-2-5-8 1 4-3z" fill="#80EBF7"/>
<path transform="translate(912,701)" d="m0 0 2 1-4 3-10 4-8 7-2-1 1-1h-11l4-2 14-6 12-4z" fill="#5696AC"/>
<path transform="translate(950,639)" d="m0 0v3l-6 12-2 8v16l2 7 1 8-2-3-3-8-1-5v-13l2-9 7-14z" fill="#517D94"/>
<path transform="translate(775,647)" d="m0 0 2 1-13 13 8-2-1 2-13 5-11 6-2-1 9-6 4-3h2v-2l11-9z" fill="#416579"/>
<path transform="translate(882,590)" d="m0 0 5 1 2 2-6 3-19 2v-3h2v-2l11-1z" fill="#07080C"/>
<path transform="translate(593,769)" d="m0 0 9 2 2-1 10 5 2 4-1 3-7-4-3 1-5-6-5-1z" fill="#64CADC"/>
<path transform="translate(510,744)" d="m0 0h2l7 21v4h2v8h2v-5h1v6l2 1-5 3-2-1v-3l1-8-4-2-5-19z" fill="#4F7D92"/>
<path transform="translate(342,725)" d="m0 0 5 2 4 5 8 5v2l10 4v2l-6-1-14-9-4-3v-2l-3-1v-3z" fill="#4B5872"/>
<path transform="translate(1561,726)" d="m0 0 9 1 30 6v2h-7l-26-5-3-1v-2z" fill="#52607B"/>
<path transform="translate(946,714)" d="m0 0 2 1-10 6-16 8h-4v2h-7l4-3 10-5 9-3z" fill="#4F5D78"/>
<path transform="translate(483,676)" d="m0 0h2l4 10v11l-6 7-4 2 1 2-4-1v-2l-4-1 9-2 3-4h2l-1-17z" fill="#43556D"/>
<path transform="translate(557,695)" d="m0 0h11l8 17-1 2-2-3-4-2-6-11-6-2z" fill="#597D98"/>
<path transform="translate(305,688)" d="m0 0 7 6 10 10 8 7 2 4h2l5 6 2 1-1 2-11-9-10-11-14-14z" fill="#4B5973"/>
<path transform="translate(844,728)" d="m0 0h2l-2 6-3 1v2l-15 5h-2v-2l14-8z" fill="#9AEAF5"/>
<path transform="translate(921,708)" d="m0 0 7 2v2l6 2h10v2l-14 7-3-1 8-4-10-4z" fill="#556F89"/>
<path transform="translate(915,606)" d="m0 0 1 2 14 2-4 4-1-2-8 2-6-1-2-4 2-2z" fill="#485066"/>
<path transform="translate(871,715)" d="m0 0h7l-2 2-17 5h-5v2l-6 1 6-7 5-2-1 2 9-2z" fill="#5797AD"/>
<path transform="translate(453,685)" d="m0 0h10v7l-5 2h-5l-1-1v-6z" fill="#4A4557"/>
<path transform="translate(1139,670)" d="m0 0 5 1 2 5-5 5-4-1-2-3 1-6z" fill="#4B5770"/>
<path transform="translate(1305,683)" d="m0 0 9 1 30 6v3l-25-5-14-3z" fill="#4B5973"/>
<path transform="translate(635,638)" d="m0 0h14l1 17 1 13-3-2h2l-2-8-1-10-4 1v-3h5v-6l-14 2-1-3z" fill="#507990"/>
<path transform="translate(387,733)" d="m0 0 5 1 4 3v6l-2-1v-2h-2l-1 2-1-2-6-1-7-2-3-2h11l2 1z" fill="#548AA0"/>
<path transform="translate(556,815)" d="m0 0h6l4 4-9 3h-8l2-6z" fill="#07080C"/>
<path transform="translate(746,778)" d="m0 0 2 1-6 5-15 2-9 2-1 2-2-4 21-5z" fill="#5797AD"/>
<path transform="translate(362,755)" d="m0 0 4 5 5 4 3 1h8l3-2v3h-2l-2 4h-8l-4-3v-2l-4-2-3-5z" fill="#5EB4C7"/>
<path transform="translate(565,667)" d="m0 0 4 2 2 6v14l-1 3h-10l4-2 3-3 1-9-3-8z" fill="#5797AD"/>
<path transform="translate(519,646)" d="m0 0 1 3-3 10-2 9-3-1 1-17 4-2z" fill="#4D5D74"/>
<path transform="translate(430,611)" d="m0 0h3v10l-2 4h-2l-5-8 5-5z" fill="#61BDD1"/>
<path transform="translate(994,579)" d="m0 0 6 1 9 3 5 3-1 2-3-1-1 2-4 1-6-6v-2l-5-2z" fill="#4B4A5E"/>
<path transform="translate(353,727)" d="m0 0 7 1v2l6 1 3 2v2l3 1v3l-6-1-6-4v-2l-5-2z" fill="#4F7C91"/>
<path transform="translate(1258,606)" d="m0 0 15 1 37 4v1h-14l-32-3-6-2z" fill="#556C86"/>
<path transform="translate(665,772)" d="m0 0h1v7h2l4 6v2h-2v-2l-3-1-2 4h-2v3h-2v-9l3-7z" fill="#4C546B"/>
<path transform="translate(580,771)" d="m0 0 7 1 5 3 2-2 4 7-2 13-2 1-1-12-3-5-4-3-6-2z" fill="#4D7087"/>
<path transform="translate(632,689)" d="m0 0 5 1 3 3-1 2h-8l-1 2-2 1v-3h-3l-1 3-1-3 5-5z" fill="#303146"/>
<path transform="translate(568,667)" d="m0 0 4 2 3 9-1 9-2 5h-2v-17z" fill="#4D6E85"/>
<path transform="translate(927,612)" d="m0 0m-1 1m-3 1h3l2 6-4 3-7 4-2 2 1-7h2l2-5z" fill="#3B3955"/>
<path transform="translate(667,802)" d="m0 0h2l-1 3-10 7-6 2-4-1 10-7z" fill="#07080C"/>
<path transform="translate(345,732)" d="m0 0 4 2 14 9 5 2-2 5-3-1v-2l-4-2-3-3-7-4-4-5z" fill="#464E65"/>
<path transform="translate(488,714)" d="m0 0 4 4 5 6v2h2l4 8v5l-3-3v-2h-2l-3-5-7-12z" fill="#414D65"/>
<path transform="translate(878,625)" d="m0 0 9 2 1 3-5 9h-4l2-11h-2z" fill="#07080C"/>
<path transform="translate(299,677)" d="m0 0 9 1 5 2-1 5 1 4-4-2-5-4v-2l-5-1z" fill="#4F7D92"/>
<path transform="translate(493,654)" d="m0 0h1v8l-3 12-3 2-1-5 4-16z" fill="#3B3A55"/>
<path transform="translate(638,640)" d="m0 0h10v6l-10 1-3-4v-2z" fill="#34334B"/>
<path transform="translate(545,696)" d="m0 0h5l2 7-1 3 2 10-2-2-2-8h-2v-2h-2l-2-7z" fill="#4A4E65"/>
<path transform="translate(455,568)" d="m0 0 7 2 6 4v2h-2l2 5-1 3-3-4v-4h-5l-5-7z" fill="#89E8F4"/>
<path transform="translate(457,814)" d="m0 0h1l1 9 4 6 1 2-7-1-4 1-2-2 1-4 5-2z" fill="#546E88"/>
<path transform="translate(582,773)" d="m0 0 6 1 5 5v6l-6-2-5-8z" fill="#3B3753"/>
<path transform="translate(519,809)" d="m0 0 12 2 4-1 2 5-3 1h-7l-7-4z" fill="#548AA0"/>
<path transform="translate(858,609)" d="m0 0h5v3l14 1v1l-12 1h-11l-2-1v-3z" fill="#4F7C91"/>
<path transform="translate(544,573)" d="m0 0 7 3 6 5 5 8-1 3-2-5-4-2-11-10z" fill="#B2F7FF"/>
<path transform="translate(654,775)" d="m0 0 2 1-15 8-9 3-4-1 2-2 21-8z" fill="#07080C"/>
<path transform="translate(504,743)" d="m0 0 2 4 8 24-1 4-4-7-5-18-2-6z" fill="#414D65"/>
<path transform="translate(992,596)" d="m0 0 9 1 5 4 2 6-4-2-2-3h-3l-2 2-1-3h-2z" fill="#73E2EF"/>
<path transform="translate(658,856)" d="m0 0 4 1h-2l1 3 2 1v2l-7 1-7-3v-2z" fill="#07080C"/>
<path transform="translate(581,793)" d="m0 0h9l3 1-2 4-1 1h-8l-4-4z" fill="#3B3753"/>
<path transform="translate(463,802)" d="m0 0h5l-4 4h-2l-1 4v10l2 9-4-4-1-2v-12l4-8z" fill="#5BA8BD"/>
<path transform="translate(473,656)" d="m0 0 4 5 1 10 5 1 1 4-2 1-3-2-6-1 3-2-3-10z" fill="#4F6981"/>
<path transform="translate(1396,760)" d="m0 0 23 4 9 2-1 3-31-7z" fill="#505F7A"/>
<path transform="translate(484,632)" d="m0 0 5 2 2 5v8l-4-2-3-8z" fill="#ADF5FD"/>
<path transform="translate(887,602)" d="m0 0h14l6 1-1 3h3v2l-9 3 1-3-1-3-13-2z" fill="#566783"/>
<path transform="translate(607,748)" d="m0 0h2l4 13 1 10-4 2-4-1-4-3h10l-5-19z" fill="#507C92"/>
<path transform="translate(664,754)" d="m0 0h2l4 10-1 3-6 1-2-7 3-1v-4l-2-1z" fill="#4A5066"/>
<path transform="translate(1481,746)" d="m0 0 9 1 18 4 6 2v1l-10-1-23-5z" fill="#4B546B"/>
<path transform="translate(953,584)" d="m0 0h10l-4 1v2l-19 2h-11v-1z" fill="#5D99B0"/>
<path transform="translate(481,796)" d="m0 0 13 1-1 4-18-1 3-3z" fill="#4B5066"/>
<path transform="translate(904,731)" d="m0 0 1 2-6 2v2l-10 5-7 1v-2l19-9z" fill="#A1E9F3"/>
<path transform="translate(970,588)" d="m0 0h15v1l-12 1-1 3-12 1-3-2z" fill="#4A4E64"/>
<path transform="translate(817,755)" d="m0 0h2v2l-16 8-2-1 1-2-4-1z" fill="#578FA6"/>
<path transform="translate(1303,655)" d="m0 0 12 1 10 2-1 3-9-1-15-3z" fill="#4B5066"/>
<path transform="translate(525,680)" d="m0 0h7v3l-14 3h-3v-3z" fill="#586985"/>
<path transform="translate(552,687)" d="m0 0 3 2-3 6v1h-8l-1-3 2-3z" fill="#4D6B82"/>
<path transform="translate(632,637)" d="m0 0h17v1l-16 1 8 11 1 4-2-1v-2l-4-2-4-5z" fill="#96F0FA"/>
<path transform="translate(1032,602)" d="m0 0h7l8 4 8 6 2 4h-3v-2l-4-2-8-6-10-3z" fill="#64CCDE"/>
<path transform="translate(595,803)" d="m0 0 1 3-7 9-5 2-5-3v-1l7-1z" fill="#07080C"/>
<path transform="translate(379,737)" d="m0 0 5 1 5 5 2 3v7l-3 7-1-3 1-9-4-6-3-2v-2z" fill="#599FB4"/>
<path transform="translate(572,785)" d="m0 0 1 4h-2v3l-6 1-3-2 1-5h7l1 1z" fill="#4B5066"/>
<path transform="translate(1019,622)" d="m0 0h1v10h-4l-2 5-2 3-1-5h-2l1-4h2l1-3 4 1 1 1z" fill="#50778E"/>
<path transform="translate(575,818)" d="m0 0h7l-3 3-7 3h-10l1-2z" fill="#07080C"/>
<path transform="translate(556,790)" d="m0 0 2 2v3l-22 5-4 1-3-2 24-6h3z" fill="#4A4455"/>
<path transform="translate(543,785)" d="m0 0h10l1 2-11 1-11 3h-3v-3z" fill="#4B5066"/>
<path transform="translate(582,767)" d="m0 0 9 3 2 2-1 4-5-3-7-1-5 1 5-5z" fill="#5798AE"/>
<path transform="translate(952,625)" d="m0 0 3 1-8 7-1 2h-2l-2 6-4 7-1-2 2-7 7-9h2v-2z" fill="#455972"/>
<path transform="translate(998,579)" d="m0 0 11 1 8 4 4 5-9-3-7-4-7-2z" fill="#597A94"/>
<path transform="translate(676,842)" d="m0 0 4 2v3l-7 5-8-2 1-2 9-1z" fill="#07080C"/>
<path transform="translate(981,614)" d="m0 0 14 1 8 3v2l-10-2-2-1h-20l4-2z" fill="#75E5F2"/>
<path transform="translate(869,583)" d="m0 0 12 3 1 2-16 1-8 1 1-2 8-2z" fill="#6BCADA"/>
<path transform="translate(648,697)" d="m0 0h15l18 1-4 3h-5v-1h-10l-7-1h-6z" fill="#64CCDD"/>
<path transform="translate(1066,648)" d="m0 0 3 1 8 17 2 3v4h-2l-7-16-1-4h-2z" fill="#495770"/>
<path transform="translate(550,609)" d="m0 0h1l1 9 1 21-2 1-1-4z" fill="#4B5973"/>
<path transform="translate(953,703)" d="m0 0 4 2-1 4-3 4-9 2-3-2 6-2-2-5 4 3 5-1v-3z" fill="#51728A"/>
<path transform="translate(602,691)" d="m0 0h12l-2 2-9 5-3 4v-9h2z" fill="#4C667E"/>
<path transform="translate(915,595)" d="m0 0h5l1 2 4 1-2 6-10 3 2-3h3l-1-3 3-3-5-1z" fill="#3B3753"/>
<path transform="translate(656,674)" d="m0 0 4 5 2 4 4 2 5 3-4 2-2-1v-2h-10v-1h7l-6-9z" fill="#71DFED"/>
<path transform="translate(555,665)" d="m0 0h3v2h3v5l-3 4-1-7-4 2-3 3 2-7z" fill="#51768E"/>
<path transform="translate(1031,605)" d="m0 0 2 2 2 9 4 1-2 1 1 5v10l-2-4-4-16z" fill="#4A4A5E"/>
<path transform="translate(510,801)" d="m0 0 4 1v5l-9 1-2-5 4-1z" fill="#484355"/>
<path transform="translate(774,768)" d="m0 0h7l1 2-9 2v2l-9 3 2-4 5-3h3z" fill="#3F4961"/>
<path transform="translate(521,669)" d="m0 0 4 2-1 6 5 1v1l-12 2v-5l5-1z" fill="#4A4455"/>
<path transform="translate(853,645)" d="m0 0 5 2-3 3h-11v-3z" fill="#B2F7FF"/>
<path transform="translate(683,785)" d="m0 0 9 3 1 2-3 1h-8l-2-1 1-4z" fill="#4B536A"/>
<path transform="translate(362,758)" d="m0 0 4 5 3 2v2l-7-1h-4l-1-5h5z" fill="#505E77"/>
<path transform="translate(844,755)" d="m0 0 4 1-11 7-2-1 1-2-8 3-3-1z" fill="#53869D"/>
<path transform="translate(645,706)" d="m0 0 3 1v4h3l1-3 3 5 1 4-3-3-11-1z" fill="#63CADD"/>
<path transform="translate(911,632)" d="m0 0 1 2-3 3-9 1-7-4 2-1h14z" fill="#57829B"/>
<path transform="translate(822,743)" d="m0 0 3 1-2 3-12 4h-2l2-4 7-3z" fill="#3E3E5A"/>
<path transform="translate(1e3 684)" d="m0 0 3 1-11 6h5v2l-15 2v-2z" fill="#528399"/>
<path transform="translate(822,644)" d="m0 0 5 2v2h-6l-4 2h-14v-1l12-2z" fill="#50798F"/>
<path transform="translate(967,625)" d="m0 0 3 1-4 2-5 6-6 3-4 3 2-5 12-9z" fill="#475D76"/>
<path transform="translate(836,739)" d="m0 0 3 1-10 5-5 1v-2l-4-1 4-2z" fill="#404C65"/>
<path transform="translate(669,689)" d="m0 0 12 3h11l2 2-5 1h-9l-10-4z" fill="#62C4D6"/>
<path transform="translate(859,643)" d="m0 0 9 1 7 6-4 4-3-5-9-5z" fill="#60BDD0"/>
<path transform="translate(422,626)" d="m0 0h1l1 26-2-3-2-9 1-9z" fill="#586985"/>
<path transform="translate(996,583)" d="m0 0 4 1 9 10 4 8-1 3-10-16-6-5z" fill="#77D6E6"/>
<path transform="translate(424,618)" d="m0 0 5 5v2h2l1-3v6l-3 2-3-2-1-6h-2z" fill="#5795AB"/>
<path transform="translate(1461,742)" d="m0 0 10 1 10 2-1 3-19-4z" fill="#4C5872"/>
<path transform="translate(1370,723)" d="m0 0 11 1 6 2 2 2h-7l-12-3z" fill="#54637E"/>
<path transform="translate(612,692)" d="m0 0h2v2l-6 4h-2l-1 3-5 5 1-7 8-6z" fill="#404C64"/>
<path transform="translate(847,654)" d="m0 0h6l8 6-3 1-3-1-3 1-1 3-1-7z" fill="#5797AD"/>
<path transform="translate(844,644)" d="m0 0 2 1-6 6-14 1-2-1v-2h-5l4-2 4 2h12z" fill="#70DEEC"/>
<path transform="translate(727,807)" d="m0 0 4 2 2 6-6 2-2-9z" fill="#302D44"/>
<path transform="translate(590,768)" d="m0 0h3l7 11 1 7-1-2h-2l-4-10-4-4z" fill="#3C3A56"/>
<path transform="translate(376,729)" d="m0 0h6l4 4-1 3-8-3-2-1z" fill="#EEFCFE"/>
<path transform="translate(476,654)" d="m0 0 1 2h2l2 14 3 1-1 4v-3l-5-1-2-10z" fill="#537C93"/>
<path transform="translate(604,724)" d="m0 0h4l-2 5-1 4 2 6v7l-2-3-3-13z" fill="#4F7088"/>
<path transform="translate(887,709)" d="m0 0 3 1-6 3 2 2-8 1-7-1 3-2z" fill="#64CCDE"/>
<path transform="translate(609,696)" d="m0 0m-1 1m-2 1h2l-1 3 4 2-5 2-5-1zm-5 7m-2 1 4 2-1 2h-2z" fill="#434560"/>
<path transform="translate(484,696)" d="m0 0 1 2-4 5-2 1h-9v-3l9-1z" fill="#5797AD"/>
<path transform="translate(617,694)" d="m0 0 5 2-2 2-11 4-3-1 9-6z" fill="#07080C"/>
<path transform="translate(465,683)" d="m0 0 1 4v7l3 5 2 2-1 2h-2l-4-6-1-4v-9z" fill="#516E87"/>
<path transform="translate(462,825)" d="m0 0 8 1 5 2v2h-10l-3-3z" fill="#44556D"/>
<path transform="translate(749,797)" d="m0 0h3l-2 4-10 4h-2l1-3z" fill="#4F6C84"/>
<path transform="translate(904,710)" d="m0 0 3 1-4 1v2l-10 4-5 1 4-4z" fill="#424D67"/>
<path transform="translate(906,687)" d="m0 0 4 4-1 3h-11l5-5z" fill="#77E8F4"/>
<path transform="translate(436,679)" d="m0 0 11 2 1 5-1-2h-12l2-3z" fill="#4A4455"/>
<path transform="translate(488,823)" d="m0 0h6l3 3-9 2-5 4v-3l2-1 2-4z" fill="#404B63"/>
<path transform="translate(387,739)" d="m0 0 4 1v2h2l1 5-1 6h-2l-2-9z" fill="#4D6E85"/>
<path transform="translate(646,714)" d="m0 0h2l4 10 1 6-2-1-3-7-4-4v-2h2z" fill="#4B5973"/>
<path transform="translate(281,677)" d="m0 0h8l1 2 7 3v3l-6-2-10-5z" fill="#4C5C76"/>
<path transform="translate(617,860)" d="m0 0 9 1 1 5v3l-4-2-6-5z" fill="#07080C"/>
<path transform="translate(746,778)" d="m0 0 2 1-6 5h-9l3-3z" fill="#5691A7"/>
<path transform="translate(555,771)" d="m0 0h3l-2 4-3 2h-8l3-3z" fill="#4D6880"/>
<path transform="translate(1405,730)" d="m0 0 9 1 3 2 10 2v1h-8l-11-2 1-2z" fill="#515F79"/>
<path transform="translate(921,708)" d="m0 0 7 2v2h2l3 3 5 1v1h-7l-6-3z" fill="#558EA4"/>
<path transform="translate(910,704)" d="m0 0 2 1-9 5h-2v2l-6 3-2-1 9-7z" fill="#4E788D"/>
<path transform="translate(942,693)" d="m0 0 3 1 4-1 3 3v6l-5-5h-6l-1-3z" fill="#486179"/>
<path transform="translate(1009,709)" d="m0 0h2l-3 10-3 6h-1l1-9z" fill="#74E3F0"/>
<path transform="translate(1010,693)" d="m0 0h1l-2 14h-2l-1-8 2-5z" fill="#080A0E"/>
<path transform="translate(992,693)" d="m0 0 4 1-19 7-2-1 10-6z" fill="#536A84"/>
<path transform="translate(483,683)" d="m0 0 2 3v7l-3 6-3 2-3-1 5-5 1-2z" fill="#4D6C83"/>
<path transform="translate(565,670)" d="m0 0 2 1 2 7v5h-3v-2h-2z" fill="#597D98"/>
<path transform="translate(430,611)" d="m0 0h2l-1 10-3-2v-2h-3l2-4z" fill="#7DEEF9"/>
<path transform="translate(558,736)" d="m0 0h1l4 22v5h-2l-3-21z" fill="#4B5066"/>
<path transform="translate(888,716)" d="m0 0 2 1v1l2 1-5 3-8 1 2-4z" fill="#49657E"/>
<path transform="translate(1074,673)" d="m0 0 2 2 5 18-2 3-3-11-2-9z" fill="#4A4455"/>
<path transform="translate(867,657)" d="m0 0 2 1-3 1-1 3-7 3v-2l-4-1 8-3z" fill="#465973"/>
<path transform="translate(468,627)" d="m0 0h1l1 16 2 6v6l-3-4-2-19z" fill="#4B5973"/>
<path transform="translate(980,589)" d="m0 0h9l5 3 1 2-10-1-5-3z" fill="#4A495C"/>
<path transform="translate(649,848)" d="m0 0 4 3-6 4-6 1 4-5z" fill="#07080C"/>
<path transform="translate(645,781)" d="m0 0 2 1-15 8h-3v-3z" fill="#424058"/>
<path transform="translate(754,765)" d="m0 0 3 1-1 2-10 1-4 1-2-1v-2z" fill="#4D6880"/>
<path transform="translate(380,726)" d="m0 0 5 2 4 4-2 4-4-5-6-2v-2z" fill="#5BA7BC"/>
<path transform="translate(565,691)" d="m0 0h8l1 4-19-1v-1z" fill="#64CCDE"/>
<path transform="translate(909,685)" d="m0 0 7 1-1 8-6-5-1-3z" fill="#414D65"/>
<path transform="translate(907,636)" d="m0 0 2 2-3 6-4-2-2-4z" fill="#4B5973"/>
<path transform="translate(797,627)" d="m0 0 2 1 1 3-3 1-1 3-7 1 1-3 5-3z" fill="#4B6881"/>
<path transform="translate(909,616)" d="m0 0 4 1-14 5h-7l3-2 4-2z" fill="#4D6880"/>
<path transform="translate(651,780)" d="m0 0 2 3-2 4h-4v2l-9 4-2-1 4-3 10-5z" fill="#4A4D61"/>
<path transform="translate(1363,714)" d="m0 0 3 1 3 6 3 2h-2l-1 2-6-5-1-5z" fill="#4E5B75"/>
<path transform="translate(1057,617)" d="m0 0 4 1 2 10v5l-2-3-4-10z" fill="#A7F5FE"/>
<path transform="translate(1371,811)" d="m0 0 2 1 1 5v3l-4 1-1-5z" fill="#414D65"/>
<path transform="translate(603,772)" d="m0 0 7 1 4 2v3l-10-3z" fill="#7DECF7"/>
<path transform="translate(855,725)" d="m0 0h5v4l-8 2 1-5z" fill="#ADF6FE"/>
<path transform="translate(1198,635)" d="m0 0 7 1-1 4h-7z" fill="#4B5066"/>
<path transform="translate(597,792)" d="m0 0 1 4-3 6-2 1h-11v-1l12-2 2-5z" fill="#4E7087"/>
<path transform="translate(575,793)" d="m0 0 7 5 8 1v1l-8 1h-3l-3-3z" fill="#517A91"/>
<path transform="translate(946,714)" d="m0 0 2 1-15 9-3-1 8-5z" fill="#4B5872"/>
<path transform="translate(486,627)" d="m0 0 12 3v1h-5v3l-4-2-3-3z" fill="#76E4F1"/>
<path transform="translate(914,592)" d="m0 0h8l-2 3h-14l3-2z" fill="#443F54"/>
<path transform="translate(445,568)" d="m0 0h6l2 5 5 8-2 1-7-10z" fill="#4C5971"/>
<path transform="translate(737,813)" d="m0 0h6l-2 2-10 3h-3l1-3z" fill="#55859D"/>
<path transform="translate(674,786)" d="m0 0h5l-4 1 2 5-4 2-3-2 2-4z" fill="#475F77"/>
<path transform="translate(526,777)" d="m0 0h4l-1 3h-5l-1 4-6 3 2-5 4-3h3z" fill="#5DAABE"/>
<path transform="translate(605,730)" d="m0 0 2 3 3 9-1 4h-2l-2-9-1-5z" fill="#3B3954"/>
<path transform="translate(868,725)" d="m0 0 3 1-5 5h-6l1-2h2v-2z" fill="#41526A"/>
<path transform="translate(943,702)" d="m0 0 4 2 7 3v2l-5 1-6-7z" fill="#76E7F3"/>
<path transform="translate(949,638)" d="m0 0 2 1-6 9-3 7-2-1 2-6z" fill="#76E7F3"/>
<path transform="translate(851,639)" d="m0 0h9v1h-6v2l4 1v1h-11l3-2z" fill="#64CCDE"/>
<path transform="translate(1258,606)" d="m0 0 15 1 6 1v1h-17z" fill="#54728C"/>
<path transform="translate(920,703)" d="m0 0 5 2 2 4-12-1z" fill="#455971"/>
<path transform="translate(469,675)" d="m0 0 8 1v1l-7 2-4 2-2 4 1-6z" fill="#53859C"/>
<path transform="translate(464,823)" d="m0 0h5l7 3-1 4v-2l-5-1-8-2z" fill="#3B3753"/>
<path transform="translate(445,809)" d="m0 0 9 2 2 1-2 4-5-3z" fill="#414D65"/>
<path transform="translate(731,784)" d="m0 0h10l-4 5-4-1z" fill="#4D748A"/>
<path transform="translate(677,777)" d="m0 0 3 4-1 5-7 1 3-4v-2h2z" fill="#3E455E"/>
<path transform="translate(665,772)" d="m0 0h1v7l2 1-5 1-1 10h-1v-9l3-7z" fill="#4A4759"/>
<path transform="translate(567,768)" d="m0 0h7l-3 2-9 4 1-5z" fill="#4D6C83"/>
<path transform="translate(352,754)" d="m0 0 5 2v2l5 2v1h-5l-1 3v-4h-2v-2h-2z" fill="#4A4759"/>
<path transform="translate(600,733)" d="m0 0h2l-1 4-5 2-1 3-4 1 1-3z" fill="#9EEDF7"/>
<path transform="translate(623,689)" d="m0 0h9l-4 2-5 4-3-1 1-4z" fill="#424F67"/>
<path transform="translate(1072,677)" d="m0 0h1l3 11v9l-2-2-2-12z" fill="#4A4455"/>
<path transform="translate(1136,671)" d="m0 0 2 3 1 3 5 1-3 3-4-1-2-3z" fill="#4B5066"/>
<path transform="translate(865,636)" d="m0 0h5l2 4-5-1-15-1v-1z" fill="#485C73"/>
<path transform="translate(456,582)" d="m0 0 3 1 5 12v2l-3-1z" fill="#4B5168"/>
<path transform="translate(821,769)" d="m0 0 3 1-14 7-3-1 3-2z" fill="#74E4F1"/>
<path transform="translate(791,761)" d="m0 0h2v2l2-1h6l-4 2-5 2h-4l2-4z" fill="#556A85"/>
<path transform="translate(804,759)" d="m0 0h3v2l2 1-6 3-2-1 1-2-4-1z" fill="#558099"/>
<path transform="translate(857,716)" d="m0 0 2 1-1 3-4 1v3l-6 1 6-7z" fill="#64C2D4"/>
<path transform="translate(579,705)" d="m0 0 2 3 2 11-1 4-4-13z" fill="#64CDDE"/>
<path transform="translate(521,671)" d="m0 0 1 4-5 1 1 4-3 2-1-6z" fill="#3C3753"/>
<path transform="translate(999,594)" d="m0 0 5 1 2 6-8-4-5-1v-1z" fill="#5797AD"/>
<path transform="translate(959,591)" d="m0 0h11v2l-10 1-3-2z" fill="#586985"/>
<path transform="translate(906,686)" d="m0 0 3 1 6 7v7l-2-3-3-6-4-5z" fill="#538097"/>
<path transform="translate(626,688)" d="m0 0h10l6 3-1 3-2-1v-2l-13-2zm13 6m-4 1 4 1z" fill="#4E7087"/>
<path transform="translate(1198,600)" d="m0 0h11l5 1v1h-12l-4 1z" fill="#528298"/>
<path transform="translate(939,586)" d="m0 0h8l-1 2-6 1h-11v-1z" fill="#59829B"/>
<path transform="translate(716,805)" d="m0 0 11 2-1 6-3-1v-2l-7-4z" fill="#46536C"/>
<path transform="translate(374,735)" d="m0 0h11l1 2 3 2-3 1-3-2-9-2z" fill="#518096"/>
<path transform="translate(934,666)" d="m0 0 2 3 2 10-3 1z" fill="#B2F7FF"/>
<path transform="translate(1295,653)" d="m0 0 9 1-1 2-6 1-4-2z" fill="#464A61"/>
<path transform="translate(938,642)" d="m0 0 1 2-6 13-1-3 4-10z" fill="#3B3753"/>
<path transform="translate(423,628)" d="m0 0 2 1 2 8-1 4-1-4h-2z" fill="#4B5872"/>
<path transform="translate(973,623)" d="m0 0h5l-1 3-12 3 3-3h2v-2z" fill="#404862"/>
<path transform="translate(541,820)" d="m0 0h3l-1 4-3 2h-4v-2z" fill="#8EDFEC"/>
<path transform="translate(523,772)" d="m0 0h1v6l2 1-5 3-2-1v-3l1-4 1 3h2z" fill="#4E7289"/>
<path transform="translate(579,772)" d="m0 0 4 1 2 5 1 4-5-3z" fill="#484456"/>
<path transform="translate(587,764)" d="m0 0 4 4-2 2-7-2-3-1 2-1h6z" fill="#4E7188"/>
<path transform="translate(854,758)" d="m0 0 2 1-13 8v-3z" fill="#A0EDF7"/>
<path transform="translate(1534,722)" d="m0 0h9l6 2v1h-7l-8-2z" fill="#53637E"/>
<path transform="translate(1248,676)" d="m0 0 2 1-11 7v-3l2-2z" fill="#4B546C"/>
<path transform="translate(1073,662)" d="m0 0h2l4 7v4h-2l-4-9z" fill="#4B5973"/>
<path transform="translate(1e3 655)" d="m0 0 2 1-5 7-4 1 4-7z" fill="#3B3753"/>
<path transform="translate(911,607)" d="m0 0 2 1v3h6l1 2-7 1-4-3z" fill="#3E425C"/>
<path transform="translate(1032,607)" d="m0 0 8 8v2l-5-1z" fill="#566E88"/>
<path transform="translate(1e3 594)" d="m0 0 4 1 3 5v2l-4 1z" fill="#527F96"/>
<path transform="translate(559,770)" d="m0 0h3l-1 6-1 2h-3l1-6z" fill="#07080C"/>
<path transform="translate(1450,739)" d="m0 0 12 2-2 3-10-2z" fill="#4B566F"/>
<path transform="translate(940,678)" d="m0 0h2l2 7 1 8-2-3-3-8z" fill="#4F748B"/>
<path transform="translate(843,652)" d="m0 0 9 1-3 2 2 2v6l-2-4-5-5z" fill="#64CCDE"/>
<path transform="translate(1022,621)" d="m0 0 4 5v3l-4-2-1 3-1-2z" fill="#4B5973"/>
<path transform="translate(911,618)" d="m0 0h2l-2 5 4 1v5l-2 1v-5l-3-1v-4l-2-1z" fill="#587C97"/>
<path transform="translate(986,592)" d="m0 0 11 2-4 3-1 2z" fill="#557A93"/>
</svg>
